<svg xmlns="http://www.w3.org/2000/svg" version="1.1" xmlns:xlink="http://www.w3.org/1999/xlink" xmlns:svgjs="http://svgjs.dev/svgjs" viewBox="0 0 800 800"><defs><linearGradient x1="50%" y1="0%" x2="50%" y2="100%" id="uundulate-grad"><stop stop-color="#ddff00" stop-opacity="1" offset="45%"></stop><stop stop-color="hsl(89, 73%, 48%)" stop-opacity="1" offset="100%"></stop></linearGradient></defs><g stroke-width="2" stroke="url(#uundulate-grad)" fill="none"><path d="M674.2389447428532 318.2922914076779C686.6563433131416 417.9839768713829 544.5936952036093 518.244381125733 432.93782734773345 591.6904586613764C321.28195949185783 665.13653619702 182.6817313935132 715.5920620948846 138.290779034649 670.8334635787671C93.89982667578482 626.0748650626497 170.89385286358186 493.02899727217334 219.86125602518598 376.8491857840122C268.8286591867901 260.6693742958512 278.6722957275013 125.36972143066276 373.33431421034857 113.17036843559322C467.9963326931959 100.97101544052367 661.8215461725647 218.60060594397294 674.2389447428532 318.2922914076779C686.6563433131416 417.9839768713829 544.5936952036093 518.244381125733 432.93782734773345 591.6904586613764 "></path><path d="M661.7735395507952 322.0063114537778C673.6265109133433 417.16655666913255 538.0212558996989 512.8696698210122 431.44065476454466 582.9772892868536C324.86005362939056 653.0849087526952 192.55983589915252 701.2470016552024 150.1866541020549 658.5228848898174C107.81347230495726 615.7987681244326 181.30777002967255 488.800439778978 228.04938213847652 377.90152881300605C274.7909942472805 267.0026178470341 284.1871927634139 137.8529492029906 374.54639222431354 126.20811225315146C464.90559168521327 114.56327530331237 649.9205681882471 226.84606623842308 661.7735395507952 322.0063114537778C673.6265109133433 417.16655666913255 538.0212558996989 512.8696698210122 431.44065476454466 582.9772892868536 "></path><path d="M649.3081190999483 325.72027046472135C660.5966632547559 416.34907543172585 531.4488013369992 507.494897481135 429.9434669225667 574.2640588771746C328.43813250813423 641.033220273214 202.43792514600273 686.9018801803638 162.08251391067165 646.2122451657116C121.72710267534063 605.5226101510593 191.72167193697425 484.5718212506263 236.237492992978 378.95381080684353C280.7533140489818 273.33580036306074 289.7020745405374 150.3361159401622 375.75845497948944 139.2457950355535C461.8148354184416 128.1554741309448 638.0195749451404 235.09146549771685 649.3081190999483 325.72027046472135C660.5966632547559 416.34907543172585 531.4488013369992 507.494897481135 429.9434669225667 574.2640588771746 "></path><path d="M636.8427139078902 329.43425999324313C647.5668308549575 415.5316247118974 524.8763620330888 502.1201556588362 428.4462943393778 565.5508589850738C332.01622664566696 628.9815623113113 212.31602965164205 672.5567892231035 173.97838897807753 633.9016359591839C135.640748304513 595.2464826952641 202.135589103065 480.3432332398529 244.42561910626858 380.00612331825926C286.71564910947217 279.6690133966655 295.21697157644996 162.8193131949119 376.9705329934544 152.2835083355336C458.724094410459 141.74770347615538 626.1185969608229 243.33689527458887 636.8427139078902 329.43425999324313C647.5668308549575 415.5316247118974 524.8763620330888 502.1201556588362 428.4462943393778 565.5508589850738 "></path><path d="M624.3773087158322 333.1482495217649C634.5369984551592 414.71417399206894 518.3039227291781 496.7454138365372 426.9491217561889 556.8376590929729C335.5943207831997 616.9299043494084 222.19413415728138 658.2116982658431 185.87426404548341 621.591026752656C149.55439393368545 584.970355239469 212.5495062691557 476.11464522907943 252.61374521955912 381.05843582967486C292.67798416996254 286.0022264302703 300.7318686123626 175.3025104496616 378.1826110074194 165.32122163551378C455.63335340247636 155.33993282136595 614.2176189765053 251.58232505146083 624.3773087158322 333.1482495217649C634.5369984551592 414.71417399206894 518.3039227291781 496.7454138365372 426.9491217561889 556.8376590929729 "></path><path d="M611.9119340413524 336.8622390502866C621.507196572939 413.8967232722405 511.7315139428458 491.37067201423815 425.4519796905781 548.1244592008718C339.17244543831055 604.8782463875056 232.07226918049884 643.8666073085827 197.77016963046742 609.2804175461283C163.468070080436 574.6942277836738 222.96345395282458 471.88605721830584 260.8019018504278 382.11074834109047C298.640349748031 292.3354394638751 306.2467961658533 187.78570770441132 379.3947195389626 178.3589349354939C452.54264291207187 168.93216216657652 602.3166715097659 259.8277548283328 611.9119340413524 336.8622390502866C621.507196572939 413.8967232722405 511.7315139428458 491.37067201423815 425.4519796905781 548.1244592008718 "></path><path d="M599.4465288492945 340.57622857880835C608.4773641731407 413.079272552412 505.1590746389353 485.99593019193935 423.95480710738934 539.4112593087709C342.7505395758433 592.8265884256026 241.95037368613816 629.5215163513224 209.6660446978733 596.9698083396005C177.38171570960844 564.4181003278786 233.37737111891533 467.65746920753236 268.9900279637184 383.1630608525061C304.60268480852136 298.66865249747985 311.76169320176587 200.26890495916098 380.60679755292745 191.39664823547406C449.45190190408914 182.5243915117871 590.4156935254483 268.0731846052048 599.4465288492945 340.57622857880835C608.4773641731407 413.079272552412 505.1590746389353 485.99593019193935 423.95480710738934 539.4112593087709 "></path><path d="M586.9810931396585 344.29021810733013C595.4475012557642 412.26182183258345 498.58660481744664 480.6211883696403 422.4576040066223 530.69805941667C346.3286031957979 580.7749304636998 251.8284476741993 615.176425394062 221.561889247701 584.6591991330728C191.2953308212027 554.1419728720836 243.79125776742796 463.42888119675877 277.1781235594308 384.2153733639218C310.5649893514336 305.0018655310846 317.2765597201003 212.7521022139107 381.8188450493144 204.43436153545417C446.3611303785284 196.11662085699766 578.5146850235526 276.3186143820767 586.9810931396585 344.29021810733013C595.4475012557642 412.26182183258345 498.58660481744664 480.6211883696403 422.4576040066223 530.69805941667 "></path><path d="M574.5156726888114 348.00420763585186C582.4176535971768 411.444371112755 492.01415025474716 475.2464465473414 420.96041616464436 521.9848595245692C349.9066820745416 568.7232725017968 261.7065369210496 600.8313344368016 233.45774905631782 572.348589926545C205.20896119158607 543.8658454162884 254.20515967472966 459.2002931859854 285.36623441393226 385.2676858753374C316.5273091531349 311.3350785646894 322.79144149722384 225.2352994686604 383.0309078044903 217.47207483543434C443.2703741117567 209.70885020220823 566.613691780446 284.5640441589487 574.5156726888114 348.00420763585186C582.4176535971768 411.444371112755 492.01415025474716 475.2464465473414 420.96041616464436 521.9848595245692 "></path><path d="M562.0502674967533 351.7181819055845C569.3878211973785 410.6269051341375 485.44171095083664 469.87168946625343 419.46324358145546 513.2716443736791C353.48477621207434 556.6715992811048 271.5846414266889 586.4862282207521 245.3536241237237 560.0379654612282C219.1226068207585 533.5897027017043 264.61907684082036 454.97168991642275 293.5543605272228 386.31998312796395C322.4896442136253 317.6682763395051 328.30633853313645 237.71848146462105 384.2429858184553 230.5097728766254C440.1796331037741 223.30106428862973 554.7127137961284 292.8094586770316 562.0502674967533 351.7181819055845C569.3878211973785 410.6269051341375 485.44171095083664 469.87168946625343 419.46324358145546 513.2716443736791 "></path><path d="M549.5848928222736 355.4321714341063C556.3580193151582 409.809454414309 478.86930216450423 464.4969476439544 417.9661015158447 504.55844448157814C357.0629008671852 544.6199413192019 281.46277644990636 572.1411372634918 257.2495297087077 547.7273562547005C233.03628296750907 523.3135752459091 275.03302452448924 450.74310190564927 301.7425171580915 387.37229563937956C328.45200979169374 324.00148937310985 333.82126608662713 250.20167871937076 385.4550943499984 243.54748617660556C437.0889226133696 236.8932936338403 542.811766329389 301.0548884539036 549.5848928222736 355.4321714341063C556.3580193151582 409.809454414309 478.86930216450423 464.4969476439544 417.9661015158447 504.55844448157814 "></path><path d="M537.1194571126375 359.1461762214171C543.3281563977818 408.99201895326956 472.2968323430156 459.12222108044466 416.46889841507766 495.8452598482663C360.64096448713985 532.5682986160881 291.3408504379675 557.7960615650204 269.1453742585354 535.4167623069617C246.94989807910338 513.037463048903 285.44691117300187 446.51452915366485 309.9306127538039 388.4246234095842C334.414314334606 330.3347176655037 339.33613260496156 262.68489123290954 386.6671418463852 256.58521473537473C433.9981510878089 250.48553823783993 530.9107578274933 309.3003334895646 537.1194571126375 359.1461762214171C543.3281563977818 408.99201895326956 472.2968323430156 459.12222108044466 416.46889841507766 495.8452598482663 "></path><path d="M524.6540519205796 362.8601199735716C530.2983239979834 408.17452245707386 465.72439303910505 453.74743348177844 414.9717258318888 487.13201417979826C364.2190586246726 520.516594877818 301.21895494360683 543.4509248313929 281.0412493259413 523.1061073240667C260.86354370827576 502.7612898167406 295.86082833909256 442.2858953665241 318.11873886709446 389.4768901446327C340.37664939509636 336.66788492274134 344.8510296408742 275.16804271129206 387.8792198603502 269.62288225898766C430.90741007982626 264.0777218066833 519.0097798431757 317.54571749006936 524.6540519205796 362.8601199735716C530.2983239979834 408.17452245707386 465.72439303910505 453.74743348177844 414.9717258318888 487.13201417979826 "></path><path d="M512.1886467285216 366.5741095020934C517.268491598185 407.3570717372454 459.1519537351945 448.37269165947953 413.4745532486999 478.4188142876974C367.7971527622053 508.46493691591513 311.09705944924616 529.1058338741325 292.9371243933472 510.79549811753895C274.7771893374482 492.4851623609454 306.2747455051833 438.05730735575065 326.30686498038506 390.52920265604837C346.33898445558674 343.0010979563461 350.3659266767868 287.6512399660417 389.09129787431516 282.6605955589678C427.81666907184365 277.6699511518939 507.1088018588581 325.7911472669414 512.1886467285216 366.5741095020934C517.268491598185 407.3570717372454 459.1519537351945 448.37269165947953 413.4745532486999 478.4188142876974 "></path><path d="M499.72324153646366 370.2880990306151C504.2386591983868 406.53962101741695 452.57951443128405 442.9979498371806 411.9773806655111 469.7056143955964C371.37524689973804 496.4132789540122 320.9751639548855 514.7607429168721 304.83299946075306 498.48488891101124C288.6908349666206 482.20903490515025 316.6886626712741 433.8287193449771 334.4949910936756 391.581515167464C352.3013195160771 349.33431098995084 355.88082371269934 300.1344372207914 390.30337588828013 295.69830885894794C424.725928063861 291.26218049710445 495.2078238745405 334.03657704381334 499.72324153646366 370.2880990306151C504.2386591983868 406.53962101741695 452.57951443128405 442.9979498371806 411.9773806655111 469.7056143955964 "></path><path d="M487.25786686198376 374.00208855913684C491.2088573161666 405.72217029758843 446.0071056449517 437.62320801488164 410.4802385999003 460.9924145034955C374.9533715548489 484.36162099210935 330.8532989781029 500.41565195961175 316.72890504573706 486.1742797044834C302.6045111133712 471.9329074493551 327.10261035494295 429.60013133420364 342.68314772454426 392.63382767887964C358.26368509414556 355.66752402355564 361.39575126619 312.61763447554114 391.5154844198233 308.7360221589281C421.6352175734565 304.8544098423151 483.30687640780116 342.2820068206853 487.25786686198376 374.00208855913684C491.2088573161666 405.72217029758843 446.0071056449517 437.62320801488164 410.4802385999003 460.9924145034955 "></path><path d="M474.7924464111368 377.7160933464477C478.1790096575791 404.90473483654904 439.4346510822521 432.24848145137173 408.98305075792234 452.2792298701836C378.53145043359257 472.30997828899547 340.73138822495315 486.07057626114045 328.6247648543538 473.86368575674476C316.5181414837545 461.65679525234907 337.51651226224465 425.37155858221917 350.87125857904573 393.6861554490843C364.22600489584687 362.00075231594946 366.91063304331357 325.1008469890799 392.7275471749992 321.7737507176973C418.5444613066848 318.4466544463147 471.4058831646945 350.5274518563463 474.7924464111368 377.7160933464477C478.1790096575791 404.90473483654904 439.4346510822521 432.24848145137173 408.98305075792234 452.2792298701836 "></path><path d="M462.3270259602898 381.43006761618034C465.1491619989917 404.08726885793146 432.8621965195525 426.87372437028375 407.4858629159444 443.56601471929366C382.1095293123363 460.2583050683035 350.6094774718034 471.72547004509096 340.52062466297065 461.55306129142787C330.4317718541379 451.38065253776483 347.9304141695463 421.14295531265657 359.05936943354726 394.7384527017109C370.1883246975482 368.3339500907652 372.4255148204371 337.58402898504056 393.9396099301751 334.8114487588884C415.45370503991313 332.0388685327362 459.50488992158785 358.7728663744292 462.3270259602898 381.43006761618034C465.1491619989917 404.08726885793146 432.8621965195525 426.87372437028375 407.4858629159444 443.56601471929366 "></path><path d="M449.86162076823183 385.14404188591305C452.1193295991934 403.26980287931394 426.289757215642 421.4989672891958 405.98869033275554 434.85279956840367C385.687623449869 448.20663184761156 360.48758197744274 457.3803638290415 352.41649973037653 449.2424368261111C344.3454174833103 441.1045098231806 358.34433133563704 416.914352043094 367.2474955468378 395.79074995433746C376.15065975803856 374.6671478655809 377.94041185634967 350.0672109810012 395.15168794414006 347.84914680007944C412.3629640319305 345.6310826191577 447.60391193727025 367.0182808925121 449.86162076823183 385.14404188591305C452.1193295991934 403.26980287931394 426.289757215642 421.4989672891958 405.98869033275554 434.85279956840367 "></path><path d="M437.39621557617386 388.8580314144348C439.08949719939505 402.45235215948543 419.7173179117315 416.1242254668968 404.49151774956664 426.13959967630274C389.26571758740175 436.15497388570867 370.3656864830821 443.03527287178116 364.3123747977824 436.9318276195833C358.25906311248275 430.8283823673855 368.7582485017278 412.6857640323205 375.43562166012833 396.8430624657531C382.11299481852893 381.0003608991857 383.4553088922622 362.55040823575087 396.3637659581051 360.8868601000596C409.27222302394784 359.2233119643683 435.7029339529527 375.26371066938407 437.39621557617386 388.8580314144348C439.08949719939505 402.45235215948543 419.7173179117315 416.1242254668968 404.49151774956664 426.13959967630274 "></path><path d="M424.93081038411594 392.57203620174556C426.0596647995967 401.63491669844603 413.144878607821 410.74949890338695 402.99434516637774 417.4264150429909C392.84381172493454 424.10333118259484 380.24379098872134 428.6901971733098 376.20824986518824 424.6212336718446C372.17270874165513 420.55227017037936 379.1721656678185 408.4571912803361 383.62374777341887 397.8953902359578C388.07532987901925 387.3335891915795 388.97020592817483 375.03362074928964 397.57584397207006 373.9245886588288C406.18148201596523 372.8155565683679 423.8019559686351 383.50915570504515 424.93081038411594 392.57203620174556C426.0596647995967 401.63491669844603 413.144878607821 410.74949890338695 402.99434516637774 417.4264150429909 "></path><path d="M412.465405192058 396.2860104714783C413.02983239979835 400.81745071982846 406.5724393039105 405.3747418222989 401.4971725831889 408.71319989210093C396.42190586246727 412.0516579619029 390.1218954943607 414.34509095726037 388.1041249325941 412.3106092065278C386.08635437082756 410.2761274557952 389.58608283390924 404.2285880107735 391.81187388670946 398.9476874885844C394.0376649395096 393.66678696639525 394.48510296408745 387.5168027452503 398.78792198603503 386.9622867000199C403.0907410079826 386.40777065478943 411.9009779843176 391.75457022312804 412.465405192058 396.2860104714783C413.02983239979835 400.81745071982846 406.5724393039105 405.3747418222989 401.4971725831889 408.71319989210093 "></path></g></svg>