<svg width="300" height="204" viewBox="0 0 300 204" fill="none" xmlns="http://www.w3.org/2000/svg">
<path d="M191 2.99997C191.961 3.19865 192.922 3.39733 193.913 3.60202C229.923 11.3123 267.129 28.2679 288 60C299.637 78.4906 303.599 99.0516 299.188 120.738C295.207 136.177 286.096 148.936 275 160C274.26 160.799 273.52 161.598 272.758 162.422C255.4 180.861 229.879 191.608 205.938 198.312C205.125 198.543 204.313 198.773 203.476 199.01C186.963 203.385 170.644 204.512 153.613 204.446C150.268 204.438 146.924 204.466 143.578 204.498C115 204.591 87.6605 198.644 62 186C60.9907 185.509 60.9907 185.509 59.9609 185.007C33.2463 171.866 12.7509 151.184 1.96093 123.316C-3.58398 105.464 -0.576577 85.3879 7.1875 68.8125C16.4033 51.4891 30.3137 37.2227 47 27C47.6107 26.6253 48.2214 26.2507 48.8506 25.8647C90.0885 0.86854 143.897 -6.80109 191 2.99997ZM40 47C39.2446 47.6045 38.4892 48.2091 37.7109 48.832C24.2596 59.9203 13.5514 76.9086 11.7456 94.4746C10.5839 113.659 15.1471 130.777 27.7891 145.574C28.5187 146.375 29.2483 147.175 30 148C30.8121 148.893 31.6242 149.787 32.4609 150.707C60.581 180.188 103.226 191.952 142.891 193.281C183.543 194.085 226.983 185.59 259 159C259.933 158.242 260.867 157.484 261.828 156.703C277.808 143.044 286.861 125.422 289.281 104.578C290.139 85.5579 281.012 68.4358 268.625 54.75C242.606 26.8751 201.202 13.2849 163.789 11.7932C159.484 11.6747 155.181 11.6658 150.875 11.6875C149.735 11.6902 149.735 11.6902 148.572 11.693C109.933 11.8482 70.0456 21.6463 40 47Z" fill="#FED092"/>
<path d="M154.938 18.625C155.813 18.6337 156.688 18.6424 157.59 18.6513C170.188 18.9246 183.863 19.831 195.453 25.1328C197.856 25.951 199.721 26.1951 202.23 26.3984C207.274 26.8879 211.45 28.468 216.062 30.5C216.881 30.8545 217.7 31.2091 218.543 31.5744C234.974 38.8472 248.55 47.9077 261 61C260.67 61.99 260.34 62.98 260 64C252.606 61.8407 245.296 59.4695 238 57C237.67 57.33 237.34 57.66 237 58C237.681 58.8868 238.361 59.7737 239.062 60.6875C241 64 241 64 241 66.75C239.77 69.5176 238.689 69.8071 236 71C236.398 71.5079 236.797 72.0158 237.207 72.539C241.82 78.5331 241.82 78.5331 243.25 82.25C246.024 86.6093 250.16 87.6435 255 89C257.676 89.4794 260.288 89.7534 263 90C266.308 93.3082 264 99.3214 264 104C250.47 104 236.94 104 223 104C223 98.39 223 92.78 223 87C224.65 87 226.3 87 228 87C228.717 84.0432 228.992 81.5623 228.938 78.5C228.998 75.0891 229.529 73.0349 231 70C230.495 69.5759 229.989 69.1518 229.469 68.7148C224.132 63.8973 224.132 63.8973 223.438 59.1875C224 56 224 56 226 54C224.747 53.6622 223.494 53.3245 222.203 52.9765C220.552 52.5262 218.901 52.0757 217.25 51.625C216.425 51.4033 215.6 51.1815 214.75 50.9531C213.951 50.734 213.152 50.5148 212.328 50.289C211.595 50.09 210.862 49.891 210.106 49.686C208 49 208 49 206.147 47.9233C203.128 46.625 200.596 46.8489 197.32 46.9375C191.688 47.0312 186.114 46.9165 180.492 46.5625C179.784 46.518 179.076 46.4735 178.347 46.4277C176.189 46.2886 174.032 46.1447 171.875 46C169.673 45.8558 167.472 45.7131 165.27 45.572C163.299 45.4452 161.329 45.3145 159.359 45.1836C156.562 45.0307 153.8 44.9627 151 45C151.495 46.485 151.495 46.485 152 48C148.04 49.32 144.08 50.64 140 52C140 52.66 140 53.32 140 54C139.34 54 138.68 54 138 54C137.505 54.99 137.505 54.99 137 56C133.09 60.2363 129.737 63.6849 123.844 64.3633C122.74 64.3465 121.637 64.3297 120.5 64.3125C119.397 64.3086 118.293 64.3047 117.156 64.3008C114 64 114 64 111.59 62.832C107.725 61.5902 104.719 63.0306 101.062 64.375C89.9991 68.3417 89.9991 68.3417 84.625 65.9375C83 64 83 64 82.5 60.625C83.0691 56.4987 84.0892 54.9107 87 52C87.66 51.67 88.32 51.34 89 51C81.2924 52.2656 73.8284 54.0094 66.3125 56.125C65.3128 56.4021 64.3132 56.6793 63.2832 56.9648C60.8542 57.6389 58.4266 58.3173 56 59C56 59.66 56 60.32 56 61C55.7693 67.1134 55.7693 67.1134 53.668 69.5351C49.1945 73.2684 46.7273 74.1245 41 74C40.1875 71.875 40.1875 71.875 40 69C42.0412 66.165 44.0968 63.7742 46.75 61.5C48.2623 59.9687 48.2623 59.9687 48.2852 57.2422C49.8648 50.0778 57.3383 44.8704 63.1406 40.7929C75.5768 33.3224 92.4909 24.6033 107.188 24.8125C108.694 24.8221 108.694 24.8221 110.23 24.832C113 25 113 25 115.227 25.6601C116.104 25.8284 116.104 25.8284 117 26C117.722 25.2162 118.444 24.4325 119.188 23.625C122.481 20.5509 124.107 20.2011 128.457 19.9023C132.257 20.0482 135.844 20.8762 139.52 21.8203C142.054 22.2872 142.054 22.2872 143.766 20.5781C147.267 18.1051 150.754 18.5558 154.938 18.625ZM105 38C103.373 39.9915 101.981 42.06 100.551 44.1953C97.9015 47.2784 94.8483 47.9384 91 49C91 49.33 91 49.66 91 50C96.94 50.33 102.88 50.66 109 51C109.99 48.69 110.98 46.38 112 44C115.655 40.6121 118.199 38.9268 123.133 38.6836C123.938 38.6417 124.744 38.5998 125.574 38.5566C126.416 38.5173 127.258 38.478 128.125 38.4375C128.974 38.3943 129.824 38.3511 130.699 38.3066C132.799 38.2004 134.9 38.0997 137 38C137 37.67 137 37.34 137 37C132.506 36.4175 128.16 35.9395 123.625 36.125C120 36 120 36 118.188 34.5C117.796 34.005 117.404 33.51 117 33C112.27 33 108.785 35.2719 105 38ZM132 35C135.049 36.0111 135.049 36.0111 138 35C137.67 36.32 137.34 37.64 137 39C137.99 38.67 138.98 38.34 140 38C139.67 36.35 139.34 34.7 139 33C136.647 33 134.206 34.2489 132 35Z" fill="#FECF92"/>
<path d="M56 116C61.301 120.712 64.7214 124.6 65.3125 131.812C65.2146 136.29 63.9543 138.541 61 142C58.6884 144.15 56.3376 146.229 53.9258 148.266C51.9162 149.863 51.9162 149.863 51 152C51.807 152.247 52.6139 152.495 53.4453 152.75C58.5118 154.532 63.3253 156.813 68.1914 159.078C73.0806 161.303 77.7495 162.852 83 164C82.5179 163.071 82.0358 162.141 81.5391 161.184C80.9007 159.935 80.2627 158.686 79.625 157.437C79.3079 156.828 78.9908 156.219 78.6641 155.592C74.0093 146.428 72.2478 137.147 75.1875 127.125C77.2629 121.643 81.1939 118.204 86 115C97.4672 111.178 110.073 115.924 120.438 120.937C124.923 123.297 128.992 125.903 133 129C133.474 128.134 133.949 127.267 134.438 126.375C138.152 120.777 144.702 117.037 151 115C161.248 113.924 169.284 115.352 177.938 120.875C183.613 126.723 183.636 133.235 184 141C185.031 140.484 186.062 139.969 187.125 139.437C190.737 137.874 193.159 137.903 197 139C198 140 198 140 198 143.187C196.831 147.643 195.417 149.223 191.844 151.961C190 153 190 153 187.25 153.125C184.573 151.787 183.51 150.567 182 148C181.67 147.01 181.34 146.02 181 145C172.911 151.565 164.925 158.239 157 165C156.165 165.709 155.329 166.418 154.469 167.148C153.757 167.759 153.046 168.37 152.312 169C151.41 169.773 151.41 169.773 150.488 170.562C148.759 172.131 148.759 172.131 147 175C167.641 173.829 167.641 173.829 188.152 171.367C191.132 170.983 193.999 170.937 197 171C196.34 173.97 195.68 176.94 195 180C192.355 180.483 189.709 180.961 187.062 181.437C186.327 181.572 185.592 181.707 184.834 181.846C182.559 182.253 180.282 182.634 178 183C177.354 183.105 176.708 183.21 176.043 183.319C167.903 184.432 159.635 184.107 151.438 184.062C149.84 184.057 148.243 184.053 146.646 184.049C142.764 184.038 138.882 184.021 135 184C134.67 180.37 134.34 176.74 134 173C133.381 173.577 132.762 174.155 132.125 174.75C123.766 180.769 115.205 182.362 105 181C102.042 179.975 99.3938 178.73 96.6211 177.281C94.019 176.009 91.6903 175.331 88.875 174.687C74.0624 170.889 52.2876 160.67 43 148C42.4648 145.609 42.4648 145.609 43 143C45.6804 140.254 48.5945 137.987 51.5938 135.598C54.2922 133.194 54.2922 133.194 54.3828 129.82C53.9899 126.926 53.762 125.323 52 123C47.1967 119.798 43.5699 119.712 38 120C37.01 121.98 36.02 123.96 35 126C32.0281 124.875 29.6656 123.777 27 122C27.125 119.25 27.125 119.25 28 116C36.557 108.804 47.0296 110.111 56 116ZM88.0625 125C82.9655 132.414 83.4558 140.418 85 149C88.0008 158.439 92.0831 165.976 100 172C104.279 174.139 109.367 173.562 114 173C122.356 170.129 128.113 166.361 132.312 158.562C134.076 151.988 132.834 147.324 129.664 141.488C123.428 132.164 113.547 127.441 103.312 123.625C95.3241 122.084 95.3241 122.084 88.0625 125ZM146.188 130C144.751 131.971 143.353 133.971 142 136C141.01 136 140.02 136 139 136C139.433 137.083 139.433 137.083 139.875 138.187C140.246 139.116 140.618 140.044 141 141C141.351 141.712 141.701 142.423 142.062 143.156C143.294 146.892 143.215 150.429 143.125 154.312C143.116 155.053 143.107 155.794 143.098 156.557C143.074 158.371 143.038 160.186 143 162C147.306 159.574 151.084 156.694 154.938 153.625C155.83 152.921 155.83 152.921 156.74 152.203C166.724 145.141 166.724 145.141 171.438 134.5C170.917 130.336 170.07 128.828 167 126C159.369 122.59 151.819 123.322 146.188 130Z" fill="#FED093"/>
<path d="M260.375 112.004C261.455 112.003 262.535 112.003 263.648 112.002C264.424 112.001 265.2 112.001 266 112C262.101 124.156 254.387 134.706 247 145C247.99 145 248.98 145 250 145C248.42 149.498 247.034 152.01 242.688 154.125C239.842 156.11 239.198 157.29 237.563 160.25C233.506 166.76 226.822 169.12 220 172C218.641 172.59 218.641 172.59 217.254 173.191C215 174 215 174 212 174C212.477 172.541 212.957 171.083 213.438 169.625C213.704 168.813 213.971 168.001 214.246 167.164C215 165 215 165 216 163C215.04 163.227 215.04 163.227 214.06 163.459C211.145 164.145 208.229 164.823 205.313 165.5C204.305 165.738 203.298 165.977 202.26 166.223C201.283 166.448 200.307 166.674 199.301 166.906C198.405 167.116 197.51 167.325 196.587 167.541C194 168 191.621 168.083 189 168C188.731 159.937 191.861 156.175 197.063 150.352C200.206 146.832 203.004 143.1 205.813 139.312C206.323 138.65 206.834 137.988 207.361 137.306C210.089 133.742 212.498 130.201 214.668 126.27C218.136 120.369 221.25 115.126 228.102 113.069C238.801 111.29 249.581 112.029 260.375 112.004ZM223 130C221.335 131.849 219.722 133.718 218.125 135.625C217.641 136.2 217.157 136.774 216.659 137.366C211.285 143.789 206.13 150.382 201 157C204.874 158.291 207.82 157.411 211.688 156.562C212.74 156.341 212.74 156.341 213.814 156.115C215.544 155.75 217.272 155.376 219 155C219.843 151.773 220.673 148.543 221.5 145.312C221.858 143.944 221.858 143.944 222.223 142.549C222.448 141.663 222.674 140.776 222.906 139.863C223.116 139.052 223.325 138.24 223.541 137.404C224.023 134.881 224.08 132.562 224 130C223.67 130 223.34 130 223 130Z" fill="#FED092"/>
<path d="M176 46C183.37 47.9104 190.205 49.8339 196 55C195.938 56.8125 195.938 56.8125 195 59C190.503 61.3387 185.887 62.7035 181 64C181.664 64.2797 182.328 64.5595 183.012 64.8477C188.932 67.5355 193.258 69.9302 196 76C196.897 78.9753 197.533 81.9292 198 85C201.471 85.7496 201.471 85.7496 205 86C205 91.94 205 97.88 205 104C188.83 104 172.66 104 156 104C155 87 155 87 156 85C157.98 85 159.96 85 162 85C163.361 82.2781 163.408 79.7095 163.75 76.6875C164.792 69.4403 164.792 69.4403 167.625 66.6875C168.409 66.1306 169.192 65.5738 170 65C169.518 64.6855 169.036 64.3709 168.539 64.0469C161.852 59.5164 161.852 59.5164 161 56C161.141 52.6109 161.681 50.5276 163.438 47.625C167.598 44.9869 171.213 45.2856 176 46Z" fill="#FECF92"/>
<path d="M91.1875 68C94 69 94 69 96 72C96.3789 74.5938 96.3789 74.5938 96.5625 77.5C96.7682 80.6228 97.0055 83.0165 98 86C99.98 86 101.96 86 104 86C104.377 90.7119 104.463 94.0737 102.312 98.375C99.3049 101.789 96.7717 103.76 92.1925 104.381C91.1705 104.383 90.1486 104.386 89.0957 104.388C87.3486 104.402 87.3486 104.402 85.5663 104.417C84.3172 104.411 83.0681 104.405 81.7812 104.398C79.8453 104.403 79.8453 104.403 77.8702 104.407C75.1433 104.412 72.4168 104.405 69.6899 104.391C66.2029 104.374 62.7165 104.384 59.2295 104.402C55.8925 104.415 52.5557 104.406 49.2187 104.398C47.3451 104.408 47.3451 104.408 45.4337 104.417C43.6866 104.403 43.6866 104.403 41.9043 104.388C40.3714 104.385 40.3714 104.385 38.8075 104.381C34.5892 103.809 31.9689 101.969 29 99C28.7301 96.3116 28.9126 93.7086 29 91C29.7618 90.9562 30.5237 90.9123 31.3086 90.8672C34.2392 90.2395 34.2392 90.2395 35.6601 87.3828C36.1229 86.3077 36.5857 85.2327 37.0625 84.125C40.1237 77.0867 40.1237 77.0867 44 75C47.25 74.3125 47.25 74.3125 50 74C49.8569 75.2858 49.8569 75.2858 49.7109 76.5977C48.7214 85.5293 48.7214 85.5293 51 94C54.0588 97.6079 56.2125 99.6705 61.0156 100.238C65.6297 100.392 69.447 100.155 73.4375 97.5039C78.5151 92.6167 80.1358 85.8722 81.5 79.1875C82.9524 72.3147 82.9524 72.3147 85.3125 69.625C88 68 88 68 91.1875 68Z" fill="#FED092"/>
<path d="M120.375 64.5625C123 65 123 65 125.188 67C127.378 70.6258 128.134 73.901 129 78C129.637 80.3429 130.32 82.6692 131 85C132.98 85 134.96 85 137 85C137 91.27 137 97.54 137 104C126.11 104 115.22 104 104 104C105.604 100.793 106.376 99.3802 108.785 97.0547C109.581 96.2754 109.581 96.2754 110.393 95.4805C110.944 94.9507 111.495 94.4209 112.062 93.875C116.004 90.3045 116.004 90.3045 119 86C118.072 85.5669 118.072 85.5669 117.125 85.125C115 84 115 84 113 82C112.132 76.3638 112.925 71.8497 116 67C118 65 118 65 120.375 64.5625Z" fill="#FED092"/>
<path d="M36 105C55.14 105 74.28 105 94 105C94 105.33 94 105.66 94 106C74.86 106 55.72 106 36 106C36 105.67 36 105.34 36 105Z" fill="#FECE91"/>
<path d="M156 105C172.17 105 188.34 105 205 105C205 105.33 205 105.66 205 106C188.83 106 172.66 106 156 106C156 105.67 156 105.34 156 105Z" fill="#FECE91"/>
<path d="M224 105C237.2 105 250.4 105 264 105C264 105.33 264 105.66 264 106C250.8 106 237.6 106 224 106C224 105.67 224 105.34 224 105Z" fill="#FFCF91"/>
<path d="M133 13C144.22 13 155.44 13 167 13C167 13.33 167 13.66 167 14C155.78 14 144.56 14 133 14C133 13.67 133 13.34 133 13Z" fill="#FECE91"/>
<path d="M104 105C114.89 105 125.78 105 137 105C137 105.33 137 105.66 137 106C126.11 106 115.22 106 104 106C104 105.67 104 105.34 104 105Z" fill="#FFCF92"/>
<path d="M138 191C146.25 191 154.5 191 163 191C163 191.33 163 191.66 163 192C154.75 192 146.5 192 138 192C138 191.67 138 191.34 138 191Z" fill="#FECE91"/>
<path d="M183 47C189.6 47.33 196.2 47.66 203 48C203 48.33 203 48.66 203 49C200.793 49.2237 198.584 49.4283 196.375 49.625C194.53 49.799 194.53 49.799 192.648 49.9766C188.947 50.0003 186.41 49.3744 183 48C183 47.67 183 47.34 183 47Z" fill="#FECE91"/>
<path d="M13 93C13.33 93 13.66 93 14 93C14 99.27 14 105.54 14 112C13.67 112 13.34 112 13 112C13 105.73 13 99.46 13 93Z" fill="#FECE91"/>
<path d="M146 17C152.27 17 158.54 17 165 17C165 17.33 165 17.66 165 18C158.73 18 152.46 18 146 18C146 17.67 146 17.34 146 17Z" fill="#FECE91"/>
<path d="M138 86C138.33 86 138.66 86 139 86C139 91.94 139 97.88 139 104C138.67 104 138.34 104 138 104C138 98.06 138 92.12 138 86Z" fill="#FECE92"/>
<path d="M199 168C195.715 170.19 194.169 170.353 190.312 170.625C188.822 170.737 188.822 170.737 187.301 170.852C186.162 170.925 186.162 170.925 185 171C189.69 168.561 193.711 167.849 199 168Z" fill="#FECE91"/>
<path d="M152 185C157.28 185 162.56 185 168 185C168 185.33 168 185.66 168 186C162.72 186 157.44 186 152 186C152 185.67 152 185.34 152 185Z" fill="#FECE91"/>
<path d="M149 172C155.93 172.495 155.93 172.495 163 173C163 173.33 163 173.66 163 174C158.05 174 153.1 174 148 174C148.33 173.34 148.66 172.68 149 172Z" fill="#FECE91"/>
<path d="M206 88C206.33 88 206.66 88 207 88C207 93.28 207 98.56 207 104C206.67 104 206.34 104 206 104C206 98.72 206 93.44 206 88Z" fill="#FECE91"/>
<path d="M221 88C221.33 88 221.66 88 222 88C222 93.28 222 98.56 222 104C221.67 104 221.34 104 221 104C221 98.72 221 93.44 221 88Z" fill="#FFCE91"/>
<path d="M105 182C109.62 182 114.24 182 119 182C119 182.33 119 182.66 119 183C114.38 183 109.76 183 105 183C105 182.67 105 182.34 105 182Z" fill="#FECE91"/>
<path d="M145 147C145.33 147 145.66 147 146 147C146.33 150.96 146.66 154.92 147 159C146.34 159 145.68 159 145 159C145 155.04 145 151.08 145 147Z" fill="#FECE91"/>
<path d="M198 145C198.66 145 199.32 145 200 145C198.707 147.884 197.341 149.872 195 152C195 148.48 195.704 147.561 198 145Z" fill="#FFCE91"/>
<path d="M152 113C156.29 113 160.58 113 165 113C165 113.33 165 113.66 165 114C160.71 114 156.42 114 152 114C152 113.67 152 113.34 152 113Z" fill="#FECE91"/>
<path d="M239 111C243.29 111 247.58 111 252 111C252 111.33 252 111.66 252 112C247.71 112 243.42 112 239 112C239 111.67 239 111.34 239 111Z" fill="#FECE91"/>
<path d="M102 171C105.96 171 109.92 171 114 171C114 171.33 114 171.66 114 172C110.04 172 106.08 172 102 172C102 171.67 102 171.34 102 171Z" fill="#FECE91"/>
<path d="M184 129C184.33 129 184.66 129 185 129C185.33 132.63 185.66 136.26 186 140C185.34 140 184.68 140 184 140C184 136.37 184 132.74 184 129Z" fill="#FECE91"/>
<path d="M101 23C104.96 23 108.92 23 113 23C113 23.33 113 23.66 113 24C109.04 24 105.08 24 101 24C101 23.67 101 23.34 101 23Z" fill="#FECE91"/>
<path d="M265 92C265.33 92 265.66 92 266 92C266 95.63 266 99.26 266 103C265.67 103 265.34 103 265 103C265 99.37 265 95.74 265 92Z" fill="#FECE91"/>
<path d="M166 172C169.3 172 172.6 172 176 172C176 172.33 176 172.66 176 173C172.7 173 169.4 173 166 173C166 172.67 166 172.34 166 172Z" fill="#FFCE92"/>
<path d="M225 112C228.3 112 231.6 112 235 112C235 112.33 235 112.66 235 113C231.7 113 228.4 113 225 113C225 112.67 225 112.34 225 112Z" fill="#FECE91"/>
<path d="M255 110C258.3 110 261.6 110 265 110C265 110.33 265 110.66 265 111C261.7 111 258.4 111 255 111C255 110.67 255 110.34 255 110Z" fill="#FECE91"/>
<path d="M126 190C128.97 190 131.94 190 135 190C135 190.33 135 190.66 135 191C132.03 191 129.06 191 126 191C126 190.67 126 190.34 126 190Z" fill="#FECE91"/>
<path d="M135 185C137.97 185 140.94 185 144 185C144 185.33 144 185.66 144 186C141.03 186 138.06 186 135 186C135 185.67 135 185.34 135 185Z" fill="#FECE92"/>
<path d="M72 133C72.33 133 72.66 133 73 133C73 135.97 73 138.94 73 142C72.67 142 72.34 142 72 142C72 139.03 72 136.06 72 133Z" fill="#FECE92"/>
<path d="M90 112C92.97 112 95.94 112 99 112C99 112.33 99 112.66 99 113C96.03 113 93.06 113 90 113C90 112.67 90 112.34 90 112Z" fill="#FECE92"/>
<path d="M59 99C61.97 99 64.94 99 68 99C68 99.33 68 99.66 68 100C65.03 100 62.06 100 59 100C59 99.67 59 99.34 59 99Z" fill="#FFCE91"/>
<path d="M162 74C162.33 74 162.66 74 163 74C163 76.97 163 79.94 163 83C162.67 83 162.34 83 162 83C162 80.03 162 77.06 162 74Z" fill="#FECE91"/>
<path d="M166 190C168.64 190 171.28 190 174 190C174 190.33 174 190.66 174 191C171.36 191 168.72 191 166 191C166 190.67 166 190.34 166 190Z" fill="#FECE91"/>
<path d="M215 165C214.34 165.66 213.68 166.32 213 167C211.68 166.34 210.36 165.68 209 165C212.75 163.875 212.75 163.875 215 165Z" fill="#FECF92"/>
<path d="M66 128C66.33 128 66.66 128 67 128C67 130.64 67 133.28 67 136C66.67 136 66.34 136 66 136C66 133.36 66 130.72 66 128Z" fill="#FECE91"/>
<path d="M91 124C93.64 124 96.28 124 99 124C99 124.33 99 124.66 99 125C96.36 125 93.72 125 91 125C91 124.67 91 124.34 91 124Z" fill="#FFCE91"/>
<path d="M38 120C40.64 120 43.28 120 46 120C46 120.33 46 120.66 46 121C43.36 121 40.72 121 38 121C38 120.67 38 120.34 38 120Z" fill="#FECE91"/>
<path d="M255 88C257.64 88 260.28 88 263 88C263 88.33 263 88.66 263 89C260.36 89 257.72 89 255 89C255 88.67 255 88.34 255 88Z" fill="#FECE91"/>
<path d="M111 73C111.33 73 111.66 73 112 73C112 75.64 112 78.28 112 81C111.67 81 111.34 81 111 81C111 78.36 111 75.72 111 73Z" fill="#FFCE91"/>
<path d="M99 47C101.625 47.375 101.625 47.375 104 48C104 48.33 104 48.66 104 49C101.69 49 99.38 49 97 49C97.66 48.34 98.32 47.68 99 47Z" fill="#FECE91"/>
<path d="M167 18C169.64 18 172.28 18 175 18C175 18.33 175 18.66 175 19C172.36 19 169.72 19 167 19C167 18.67 167 18.34 167 18Z" fill="#FECE91"/>
<path d="M169 14C171.64 14 174.28 14 177 14C177 14.33 177 14.66 177 15C174.36 15 171.72 15 169 15C169 14.67 169 14.34 169 14Z" fill="#FECE92"/>
<path d="M124 14C126.64 14 129.28 14 132 14C132 14.33 132 14.66 132 15C129.36 15 126.72 15 124 15C124 14.67 124 14.34 124 14Z" fill="#FFCE92"/>
<path d="M118 189C120.31 189 122.62 189 125 189C125 189.33 125 189.66 125 190C122.69 190 120.38 190 118 190C118 189.67 118 189.34 118 189Z" fill="#FECE91"/>
<path d="M170 184C172.31 184 174.62 184 177 184C177 184.33 177 184.66 177 185C174.69 185 172.38 185 170 185C170 184.67 170 184.34 170 184Z" fill="#FECF92"/>
<path d="M177 171C179.31 171 181.62 171 184 171C184 171.33 184 171.66 184 172C181.69 172 179.38 172 177 172C177 171.67 177 171.34 177 171Z" fill="#FECE91"/>
<path d="M169 131C169.33 131 169.66 131 170 131C170 133.31 170 135.62 170 138C169.67 138 169.34 138 169 138C169 135.69 169 133.38 169 131Z" fill="#FFCE92"/>
<path d="M287 99C287.33 99 287.66 99 288 99C288 101.31 288 103.62 288 106C287.67 106 287.34 106 287 106C287 103.69 287 101.38 287 99Z" fill="#FECE92"/>
<path d="M27 92C27.33 92 27.66 92 28 92C28 94.31 28 96.62 28 99C27.67 99 27.34 99 27 99C27 96.69 27 94.38 27 92Z" fill="#FECE91"/>
<path d="M105 87C105.33 87 105.66 87 106 87C106 89.31 106 91.62 106 94C105.67 94 105.34 94 105 94C105 91.69 105 89.38 105 87Z" fill="#FECE91"/>
<path d="M199 25C201.31 25 203.62 25 206 25C206 25.33 206 25.66 206 26C203.69 26 201.38 26 199 26C199 25.67 199 25.34 199 25Z" fill="#FFCF91"/>
<path d="M176 189C177.98 189 179.96 189 182 189C182 189.33 182 189.66 182 190C180.02 190 178.04 190 176 190C176 189.67 176 189.34 176 189Z" fill="#FECF92"/>
<path d="M80 161C80.66 161.33 81.32 161.66 82 162C81.67 162.66 81.34 163.32 81 164C80.01 163.34 79.02 162.68 78 162C78.66 161.67 79.32 161.34 80 161Z" fill="#FFCE91"/>
<path d="M205 154C206.32 154.66 207.64 155.32 209 156C207.35 156 205.7 156 204 156C204.33 155.34 204.66 154.68 205 154Z" fill="#FFCE92"/>
<path d="M131 150C131.33 150 131.66 150 132 150C132 151.98 132 153.96 132 156C131.67 156 131.34 156 131 156C131 154.02 131 152.04 131 150Z" fill="#FECE91"/>
<path d="M53 127C53.33 127 53.66 127 54 127C54 128.98 54 130.96 54 133C53.67 133 53.34 133 53 133C53 131.02 53 129.04 53 127Z" fill="#FECF92"/>
<path d="M286 108C286.33 108 286.66 108 287 108C287 109.98 287 111.96 287 114C286.67 114 286.34 114 286 114C286 112.02 286 110.04 286 108Z" fill="#FECE91"/>
<path d="M286 91C286.33 91 286.66 91 287 91C287 92.98 287 94.96 287 97C286.67 97 286.34 97 286 97C286 95.02 286 93.04 286 91Z" fill="#FFCE92"/>
<path d="M116 86C116.66 86.66 117.32 87.32 118 88C116.515 88.99 116.515 88.99 115 90C115.33 88.68 115.66 87.36 116 86Z" fill="#FFCE92"/>
<path d="M161 83C161.33 83.66 161.66 84.32 162 85C160.35 85 158.7 85 157 85C158.32 84.34 159.64 83.68 161 83Z" fill="#FFCE92"/>
<path d="M227 75C227.33 75 227.66 75 228 75C228 76.98 228 78.96 228 81C227.67 81 227.34 81 227 81C227 79.02 227 77.04 227 75Z" fill="#FECE92"/>
<path d="M80 76C80.33 76 80.66 76 81 76C81 77.98 81 79.96 81 82C80.67 82 80.34 82 80 82C80 80.02 80 78.04 80 76Z" fill="#FECE92"/>
<path d="M176 19C177.98 19 179.96 19 182 19C182 19.33 182 19.66 182 20C180.02 20 178.04 20 176 20C176 19.67 176 19.34 176 19Z" fill="#FFCE91"/>
<path d="M117 15C118.98 15 120.96 15 123 15C123 15.33 123 15.66 123 16C121.02 16 119.04 16 117 16C117 15.67 117 15.34 117 15Z" fill="#FFCE92"/>
<path d="M179 0C180.98 0 182.96 0 185 0C185 0.33 185 0.66 185 1C183.02 1 181.04 1 179 1C179 0.67 179 0.34 179 0Z" fill="#FFCF92"/>
<path d="M184 203C185.65 203 187.3 203 189 203C189 203.33 189 203.66 189 204C187.35 204 185.7 204 184 204C184 203.67 184 203.34 184 203Z" fill="#FFCE92"/>
<path d="M111 203C112.65 203 114.3 203 116 203C116 203.33 116 203.66 116 204C114.35 204 112.7 204 111 204C111 203.67 111 203.34 111 203Z" fill="#FFCF92"/>
<path d="M183 188C184.65 188 186.3 188 188 188C188 188.33 188 188.66 188 189C186.35 189 184.7 189 183 189C183 188.67 183 188.34 183 188Z" fill="#FECE92"/>
<path d="M107 187C108.65 187 110.3 187 112 187C112 187.33 112 187.66 112 188C110.35 188 108.7 188 107 188C107 187.67 107 187.34 107 187Z" fill="#FECE92"/>
<path d="M179 183C180.65 183 182.3 183 184 183C184 183.33 184 183.66 184 184C182.35 184 180.7 184 179 184C179 183.67 179 183.34 179 183Z" fill="#FECE91"/>
<path d="M185 182C186.65 182 188.3 182 190 182C190 182.33 190 182.66 190 183C188.35 183 186.7 183 185 183C185 182.67 185 182.34 185 182Z" fill="#FECF91"/>
<path d="M133 179C133.33 179 133.66 179 134 179C134 180.65 134 182.3 134 184C133.67 184 133.34 184 133 184C133 182.35 133 180.7 133 179Z" fill="#FECE91"/>
<path d="M41 143C41.33 143 41.66 143 42 143C42 144.65 42 146.3 42 148C41.67 148 41.34 148 41 148C41 146.35 41 144.7 41 143Z" fill="#FFCE91"/>
<path d="M61 142C61 142.99 61 143.98 61 145C60.34 144.67 59.68 144.34 59 144C59.66 143.34 60.32 142.68 61 142Z" fill="#FECE91"/>
<path d="M85 137C85.33 137 85.66 137 86 137C86 138.65 86 140.3 86 142C85.67 142 85.34 142 85 142C85 140.35 85 138.7 85 137Z" fill="#FFCE92"/>
<path d="M156 125C157.65 125 159.3 125 161 125C161 125.33 161 125.66 161 126C159.35 126 157.7 126 156 126C156 125.67 156 125.34 156 125Z" fill="#FECE91"/>
<path d="M197 77C197.33 77 197.66 77 198 77C198 78.65 198 80.3 198 82C197.67 82 197.34 82 197 82C197 80.35 197 78.7 197 77Z" fill="#FFCE91"/>
<path d="M93 67C94.32 67.33 95.64 67.66 97 68C96.01 68.33 95.02 68.66 94 69C93.67 68.34 93.34 67.68 93 67Z" fill="#FFCE92"/>
<path d="M184 63C184.99 63.33 185.98 63.66 187 64C186.01 64.33 185.02 64.66 184 65C184 64.34 184 63.68 184 63Z" fill="#FECE91"/>
<path d="M57 61C57.33 61 57.66 61 58 61C58 62.65 58 64.3 58 66C57.67 66 57.34 66 57 66C57 64.35 57 62.7 57 61Z" fill="#FECF92"/>
<path d="M82 52C83.32 52.33 84.64 52.66 86 53C85.01 53.495 85.01 53.495 84 54C83.34 53.34 82.68 52.68 82 52Z" fill="#FECF92"/>
<path d="M107 47C107.33 47.99 107.66 48.98 108 50C107.01 49.67 106.02 49.34 105 49C105.66 49 106.32 49 107 49C107 48.34 107 47.68 107 47Z" fill="#FFCF91"/>
<path d="M161 46C162.32 46.33 163.64 46.66 165 47C164.01 47.33 163.02 47.66 162 48C161.67 47.34 161.34 46.68 161 46Z" fill="#FECE91"/>
<path d="M125 18C126.65 18 128.3 18 130 18C130 18.33 130 18.66 130 19C128.35 19 126.7 19 125 19C125 18.67 125 18.34 125 18Z" fill="#FECF92"/>
<path d="M184 16C185.65 16 187.3 16 189 16C189 16.33 189 16.66 189 17C187.35 17 185.7 17 184 17C184 16.67 184 16.34 184 16Z" fill="#FECE91"/>
<path d="M111 16C112.65 16 114.3 16 116 16C116 16.33 116 16.66 116 17C114.35 17 112.7 17 111 17C111 16.67 111 16.34 111 16Z" fill="#FECE91"/>
<path d="M178 15C179.65 15 181.3 15 183 15C183 15.33 183 15.66 183 16C181.35 16 179.7 16 178 16C178 15.67 178 15.34 178 15Z" fill="#FFCE92"/>
<path d="M191 2C192.65 2 194.3 2 196 2C196 2.33 196 2.66 196 3C194.35 3 192.7 3 191 3C191 2.67 191 2.34 191 2Z" fill="#FECE92"/>
<path d="M186 1C187.65 1 189.3 1 191 1C191 1.33 191 1.66 191 2C189.35 2 187.7 2 186 2C186 1.67 186 1.34 186 1Z" fill="#FFCF91"/>
<path d="M110 1C111.65 1 113.3 1 115 1C115 1.33 115 1.66 115 2C113.35 2 111.7 2 110 2C110 1.67 110 1.34 110 1Z" fill="#FECE92"/>
<path d="M116 0C117.65 0 119.3 0 121 0C121 0.33 121 0.66 121 1C119.35 1 117.7 1 116 1C116 0.67 116 0.34 116 0Z" fill="#FECE91"/>
<path d="M190 202C194 203 194 203 194 203L190 202Z" fill="#FECE91"/>
<path d="M106 202C110 203 110 203 110 203L106 202Z" fill="#FECF91"/>
<path d="M195 201C199 202 199 202 199 202L195 201Z" fill="#FECE92"/>
<path d="M101 201C105 202 105 202 105 202L101 201Z" fill="#FECE91"/>
<path d="M97 200C101 201 101 201 101 201L97 200Z" fill="#FECE91"/>
<path d="M113 188C117 189 117 189 117 189L113 188Z" fill="#FFCE91"/>
<path d="M189 187C193 188 193 188 193 188L189 187Z" fill="#FFCF92"/>
<path d="M103 186C107 187 107 187 107 187L103 186Z" fill="#FFCE92"/>
<path d="M200 167C204 168 204 168 204 168L200 167Z" fill="#FECE91"/>
<path d="M187 164C188 168 188 168 188 168L187 164Z" fill="#FFCF91"/>
<path d="M205 166C209 167 209 167 209 167L205 166Z" fill="#FFCF92"/>
<path d="M210 154C214 155 214 155 214 155L210 154Z" fill="#FFCE92"/>
<path d="M86 144C87 148 87 148 87 148L86 144Z" fill="#FECE92"/>
<path d="M73 143C74 147 74 147 74 147L73 143Z" fill="#FFCF92"/>
<path d="M199 140C200 144 200 144 200 144L199 140Z" fill="#FFCF91"/>
<path d="M220 140C221 144 221 144 221 144L220 140Z" fill="#FFCE91"/>
<path d="M125 138C125.99 138.495 125.99 138.495 127 139C126.67 139.66 126.34 140.32 126 141C125.67 140.01 125.34 139.02 125 138Z" fill="#FFCE92"/>
<path d="M221 136C222 140 222 140 222 140L221 136Z" fill="#FFCF91"/>
<path d="M86 131C87 135 87 135 87 135L86 131Z" fill="#FFCE92"/>
<path d="M73 128C74 132 74 132 74 132L73 128Z" fill="#FFCE91"/>
<path d="M14 113C15 117 15 117 15 117L14 113Z" fill="#FFCE91"/>
<path d="M165 114C169 115 169 115 169 115L165 114Z" fill="#FECE92"/>
<path d="M100 113C104 114 104 114 104 114L100 113Z" fill="#FFCE91"/>
<path d="M43 110C47 111 47 111 47 111L43 110Z" fill="#FECE92"/>
<path d="M34 110C38 111 38 111 38 111L34 110Z" fill="#FFCF92"/>
<path d="M14 88C15 92 15 92 15 92L14 88Z" fill="#FECF91"/>
<path d="M0 82C1 86 1 86 1 86L0 82Z" fill="#FECE91"/>
<path d="M131 84C135 85 135 85 135 85L131 84Z" fill="#FFCE91"/>
<path d="M50 80C51 84 51 84 51 84L50 80Z" fill="#FECE91"/>
<path d="M97 79C98 83 98 83 98 83L97 79Z" fill="#FECE92"/>
<path d="M129 72C130 76 130 76 130 76L129 72Z" fill="#FFCE92"/>
<path d="M124 65C124.99 65.33 125.98 65.66 127 66C126.01 66 125.02 66 124 66C124 65.67 124 65.34 124 65Z" fill="#FECE91"/>
<path d="M56 59C56.99 59.33 57.98 59.66 59 60C58.01 60.33 57.02 60.66 56 61C56 60.34 56 59.68 56 59Z" fill="#FFCE91"/>
<path d="M46 56C47 60 47 60 47 60L46 56Z" fill="#FFCF91"/>
<path d="M238 58C238.99 58.33 239.98 58.66 241 59C240.01 59 239.02 59 238 59C238 58.67 238 58.34 238 58Z" fill="#FECE91"/>
<path d="M219 53C223 54 223 54 223 54L219 53Z" fill="#FFCE92"/>
<path d="M210 51C214 52 214 52 214 52L210 51Z" fill="#FECF91"/>
<path d="M27 40C27.66 40.33 28.32 40.66 29 41C28.01 41 27.02 41 26 41C26.33 40.67 26.66 40.34 27 40Z" fill="#FFCF91"/>
<path d="M97 24C101 25 101 25 101 25L97 24Z" fill="#FFCE92"/>
<path d="M183 20C187 21 187 21 187 21L183 20Z" fill="#FFCE92"/>
<path d="M132 19C136 20 136 20 136 20L132 19Z" fill="#FFCF92"/>
<path d="M102 18C106 19 106 19 106 19L102 18Z" fill="#FFCE91"/>
<path d="M190 17C194 18 194 18 194 18L190 17Z" fill="#FECF91"/>
<path d="M106 17C110 18 110 18 110 18L106 17Z" fill="#FFCE92"/>
<path d="M96 4C100 5 100 5 100 5L96 4Z" fill="#FFCE91"/>
<path d="M196 3C200 4 200 4 200 4L196 3Z" fill="#FFCE91"/>
<path d="M100 3C104 4 104 4 104 4L100 3Z" fill="#FECF91"/>
<path d="M105 2C109 3 109 3 109 3L105 2Z" fill="#FECE91"/>
<path d="M200 200C203 201 203 201 203 201L200 200Z" fill="#FFCF92"/>
<path d="M204 199C207 200 207 200 207 200L204 199Z" fill="#FFCE92"/>
<path d="M94 199C97 200 97 200 97 200L94 199Z" fill="#FECE91"/>
<path d="M207 198C210 199 210 199 210 199L207 198Z" fill="#FFCE92"/>
<path d="M90 198C93 199 93 199 93 199L90 198Z" fill="#FFCE92"/>
<path d="M211 197C214 198 214 198 214 198L211 197Z" fill="#FFCF92"/>
<path d="M214 196C217 197 217 197 217 197L214 196Z" fill="#FFCE91"/>
<path d="M217 195C220 196 220 196 220 196L217 195Z" fill="#FFCF92"/>
<path d="M75 193C78 194 78 194 78 194L75 193Z" fill="#FECE91"/>
<path d="M225 192C228 193 228 193 228 193L225 192Z" fill="#FFCF92"/>
<path d="M194 186C197 187 197 187 197 187L194 186Z" fill="#FECE92"/>
<path d="M198 185C201 186 201 186 201 186L198 185Z" fill="#FECF92"/>
<path d="M99 185C102 186 102 186 102 186L99 185Z" fill="#FECF92"/>
<path d="M202 184C205 185 205 185 205 185L202 184Z" fill="#FFCF91"/>
<path d="M95 184C98 185 98 185 98 185L95 184Z" fill="#FECE91"/>
<path d="M92 183C95 184 95 184 95 184L92 183Z" fill="#FFCE92"/>
<path d="M209 182C212 183 212 183 212 183L209 182Z" fill="#FFCF91"/>
<path d="M212 181C215 182 215 182 215 182L212 181Z" fill="#FECE92"/>
<path d="M191 181C194 182 194 182 194 182L191 181Z" fill="#FFCF92"/>
<path d="M119 181C122 182 122 182 122 182L119 181Z" fill="#FECF92"/>
<path d="M102 181C105 182 105 182 105 182L102 181Z" fill="#FECE91"/>
<path d="M215 180C218 181 218 181 218 181L215 180Z" fill="#FFCE92"/>
<path d="M132 175C132.33 175.66 132.66 176.32 133 177C132.34 176.67 131.68 176.34 131 176C131.33 175.67 131.66 175.34 132 175Z" fill="#FFCF91"/>
<path d="M86 175C89 176 89 176 89 176L86 175Z" fill="#FFCE91"/>
<path d="M114 170C117 171 117 171 117 171L114 170Z" fill="#FECE92"/>
<path d="M215 153C218 154 218 154 218 154L215 153Z" fill="#FECF91"/>
<path d="M180 146C180.33 146.66 180.66 147.32 181 148C180.34 147.67 179.68 147.34 179 147C179.33 146.67 179.66 146.34 180 146Z" fill="#FFCF92"/>
<path d="M194 137C197 138 197 138 197 138L194 137Z" fill="#FFCE91"/>
<path d="M188 137C191 138 191 138 191 138L188 137Z" fill="#FFCE92"/>
<path d="M140 137C140.66 137 141.32 137 142 137C141.67 137.66 141.34 138.32 141 139C140.67 138.34 140.34 137.68 140 137Z" fill="#FFCF92"/>
<path d="M131 127C131.66 127 132.32 127 133 127C132.67 127.66 132.34 128.32 132 129C131.67 128.34 131.34 127.68 131 127Z" fill="#FFCE91"/>
<path d="M152 126C155 127 155 127 155 127L152 126Z" fill="#FECE92"/>
<path d="M104 126C107 127 107 127 107 127L104 126Z" fill="#FFCE91"/>
<path d="M100 125C103 126 103 126 103 126L100 125Z" fill="#FFCF91"/>
<path d="M111 116C114 117 114 117 114 117L111 116Z" fill="#FECF92"/>
<path d="M108 115C111 116 111 116 111 116L108 115Z" fill="#FFCE92"/>
<path d="M148 114C151 115 151 115 151 115L148 114Z" fill="#FECE91"/>
<path d="M105 114C108 115 108 115 108 115L105 114Z" fill="#FECF91"/>
<path d="M86 113C89 114 89 114 89 114L86 113Z" fill="#FFCE91"/>
<path d="M30 89C33 90 33 90 33 90L30 89Z" fill="#FECE91"/>
<path d="M252 87C255 88 255 88 255 88L252 87Z" fill="#FECE91"/>
<path d="M225 86C228 87 228 87 228 87L225 86Z" fill="#FECE92"/>
<path d="M99 85C102 86 102 86 102 86L99 85Z" fill="#FFCF91"/>
<path d="M85 67C85.99 67.495 85.99 67.495 87 68C86.01 68.495 86.01 68.495 85 69C85 68.34 85 67.68 85 67Z" fill="#FFCF91"/>
<path d="M97 66C100 67 100 67 100 67L97 66Z" fill="#FFCF92"/>
<path d="M167 64C167.99 64.495 167.99 64.495 169 65C168.01 65.495 168.01 65.495 167 66C167 65.34 167 64.68 167 64Z" fill="#FFCE91"/>
<path d="M114 65C117 66 117 66 117 66L114 65Z" fill="#FECF92"/>
<path d="M188 62C191 63 191 63 191 63L188 62Z" fill="#FECE91"/>
<path d="M247 61C250 62 250 62 250 62L247 61Z" fill="#FFCE92"/>
<path d="M244 60C247 61 247 61 247 61L244 60Z" fill="#FFCF92"/>
<path d="M241 59C244 60 244 60 244 60L241 59Z" fill="#FFCE92"/>
<path d="M59 58C62 59 62 59 62 59L59 58Z" fill="#FFCE92"/>
<path d="M63 57C66 58 66 58 66 58L63 57Z" fill="#FFCE92"/>
<path d="M66 56C69 57 69 57 69 57L66 56Z" fill="#FFCE92"/>
<path d="M70 55C73 56 73 56 73 56L70 55Z" fill="#FFCF91"/>
<path d="M223 54C223.99 54.495 223.99 54.495 225 55C224.01 55.495 224.01 55.495 223 56C223 55.34 223 54.68 223 54Z" fill="#FFCF92"/>
<path d="M74 54C77 55 77 55 77 55L74 54Z" fill="#FFCE91"/>
<path d="M78 53C81 54 81 54 81 54L78 53Z" fill="#FFCE92"/>
<path d="M215 52C218 53 218 53 218 53L215 52Z" fill="#FECE92"/>
<path d="M117 36C117.66 36.66 118.32 37.32 119 38C118.34 38 117.68 38 117 38C117 37.34 117 36.68 117 36Z" fill="#FFCF91"/>
<path d="M88 27C91 28 91 28 91 28L88 27Z" fill="#FFCF91"/>
<path d="M91 26C94 27 94 27 94 27L91 26Z" fill="#FFCF91"/>
<path d="M94 25C97 26 97 26 97 26L94 25Z" fill="#FFCE91"/>
<path d="M79 25C82 26 82 26 82 26L79 25Z" fill="#FECF91"/>
<path d="M188 21C191 22 191 22 191 22L188 21Z" fill="#FFCF92"/>
<path d="M91 21C94 22 94 22 94 22L91 21Z" fill="#FFCE92"/>
<path d="M203 20C206 21 206 21 206 21L203 20Z" fill="#FFCE92"/>
<path d="M137 20C140 21 140 21 140 21L137 20Z" fill="#FECE91"/>
<path d="M94 20C97 21 97 21 97 21L94 20Z" fill="#FFCE91"/>
<path d="M199 19C202 20 202 20 202 20L199 19Z" fill="#FFCF92"/>
<path d="M98 19C101 20 101 20 101 20L98 19Z" fill="#FFCF92"/>
<path d="M195 18C198 19 198 19 198 19L195 18Z" fill="#FFCE91"/>
<path d="M223 11C226 12 226 12 226 12L223 11Z" fill="#FFCE91"/>
<path d="M77 10C80 11 80 11 80 11L77 10Z" fill="#FFCE92"/>
<path d="M86 7C89 8 89 8 89 8L86 7Z" fill="#FECE92"/>
<path d="M208 6C211 7 211 7 211 7L208 6Z" fill="#FFCF92"/>
<path d="M89 6C92 7 92 7 92 7L89 6Z" fill="#FECF92"/>
<path d="M205 5C208 6 208 6 208 6L205 5Z" fill="#FECE92"/>
<path d="M93 5C96 6 96 6 96 6L93 5Z" fill="#FECE91"/>
<path d="M201 4C204 5 204 5 204 5L201 4Z" fill="#FFCF92"/>
<path d="M87 197C89 198 89 198 89 198L87 197Z" fill="#FFCF92"/>
<path d="M84 196C86 197 86 197 86 197L84 196Z" fill="#FECE92"/>
<path d="M81 195C83 196 83 196 83 196L81 195Z" fill="#FFCF92"/>
<path d="M220 194C222 195 222 195 222 195L220 194Z" fill="#FFCF92"/>
<path d="M78 194C80 195 80 195 80 195L78 194Z" fill="#FFCF92"/>
<path d="M223 193C225 194 225 194 225 194L223 193Z" fill="#FECF92"/>
<path d="M73 192C75 193 75 193 75 193L73 192Z" fill="#FFCF92"/>
<path d="M228 191C230 192 230 192 230 192L228 191Z" fill="#FFCF92"/>
<path d="M70 191C72 192 72 192 72 192L70 191Z" fill="#FFCF92"/>
<path d="M230 190C232 191 232 191 232 191L230 190Z" fill="#FFCE91"/>
<path d="M68 190C70 191 70 191 70 191L68 190Z" fill="#FFCE91"/>
<path d="M66 189C68 190 68 190 68 190L66 189Z" fill="#FFCE92"/>
<path d="M235 188C237 189 237 189 237 189L235 188Z" fill="#FFCF92"/>
<path d="M64 188C66 189 66 189 66 189L64 188Z" fill="#FFCF91"/>
<path d="M237 187C239 188 239 188 239 188L237 187Z" fill="#FECF92"/>
<path d="M239 186C241 187 241 187 241 187L239 186Z" fill="#FFCF92"/>
<path d="M241 185C243 186 243 186 243 186L241 185Z" fill="#FECF92"/>
<path d="M56 184C58 185 58 185 58 185L56 184Z" fill="#FECF92"/>
<path d="M206 183C208 184 208 184 208 184L206 183Z" fill="#FFCF92"/>
<path d="M54 183C56 184 56 184 56 184L54 183Z" fill="#FECE92"/>
<path d="M246 182C248 183 248 183 248 183L246 182Z" fill="#FFCF92"/>
<path d="M89 182C91 183 91 183 91 183L89 182Z" fill="#FFCE91"/>
<path d="M52 182C54 183 54 183 54 183L52 182Z" fill="#FFCF92"/>
<path d="M248 181C250 182 250 182 250 182L248 181Z" fill="#FFCE92"/>
<path d="M86 181C88 182 88 182 88 182L86 181Z" fill="#FFCF92"/>
<path d="M123 180C125 181 125 181 125 181L123 180Z" fill="#FECE92"/>
<path d="M100 180C102 181 102 181 102 181L100 180Z" fill="#FFCF92"/>
<path d="M83 180C85 181 85 181 85 181L83 180Z" fill="#FFCF92"/>
<path d="M218 179C220 180 220 180 220 180L218 179Z" fill="#FECF92"/>
<path d="M125 179C127 180 127 180 127 180L125 179Z" fill="#FECF92"/>
<path d="M80 179C82 180 82 180 82 180L80 179Z" fill="#FFCE91"/>
<path d="M47 179C49 180 49 180 49 180L47 179Z" fill="#FFCF92"/>
<path d="M253 178C255 179 255 179 255 179L253 178Z" fill="#FFCF92"/>
<path d="M221 178C223 179 223 179 223 179L221 178Z" fill="#FFCE91"/>
<path d="M127 178C129 179 129 179 129 179L127 178Z" fill="#FFCF92"/>
<path d="M96 178C98 179 98 179 98 179L96 178Z" fill="#FFCE92"/>
<path d="M78 178C80 179 80 179 80 179L78 178Z" fill="#FFCF91"/>
<path d="M223 177C225 178 225 178 225 178L223 177Z" fill="#FECE91"/>
<path d="M129 177C131 178 131 178 131 178L129 177Z" fill="#FECE91"/>
<path d="M92 177C94 178 94 178 94 178L92 177Z" fill="#FECF91"/>
<path d="M75 177C77 178 77 178 77 178L75 177Z" fill="#FFCF92"/>
<path d="M44 177C46 178 46 178 46 178L44 177Z" fill="#FFCF91"/>
<path d="M256 176C258 177 258 177 258 177L256 176Z" fill="#FFCF91"/>
<path d="M89 176C91 177 91 177 91 177L89 176Z" fill="#FECF91"/>
<path d="M73 176C75 177 75 177 75 177L73 176Z" fill="#FECF92"/>
<path d="M228 175C230 176 230 176 230 176L228 175Z" fill="#FFCE91"/>
<path d="M213 175C215 176 215 176 215 176L213 175Z" fill="#FFCF92"/>
<path d="M71 175C73 176 73 176 73 176L71 175Z" fill="#FFCF92"/>
<path d="M41 175C43 176 43 176 43 176L41 175Z" fill="#FFCF92"/>
<path d="M230 174C232 175 232 175 232 175L230 174Z" fill="#FFCE92"/>
<path d="M215 174C217 175 217 175 217 175L215 174Z" fill="#FECF92"/>
<path d="M84 174C86 175 86 175 86 175L84 174Z" fill="#FFCF91"/>
<path d="M68 174C70 175 70 175 70 175L68 174Z" fill="#FFCE91"/>
<path d="M260 173C262 174 262 174 262 174L260 173Z" fill="#FECF92"/>
<path d="M232 173C234 174 234 174 234 174L232 173Z" fill="#FFCF92"/>
<path d="M218 173C220 174 220 174 220 174L218 173Z" fill="#FFCE91"/>
<path d="M81 173C83 174 83 174 83 174L81 173Z" fill="#FECF92"/>
<path d="M66 173C68 174 68 174 68 174L66 173Z" fill="#FECE91"/>
<path d="M234 172C236 173 236 173 236 173L234 172Z" fill="#FFCE91"/>
<path d="M220 172C222 173 222 173 222 173L220 172Z" fill="#FFCF92"/>
<path d="M79 172C81 173 81 173 81 173L79 172Z" fill="#FFCE92"/>
<path d="M64 172C66 173 66 173 66 173L64 172Z" fill="#FFCE91"/>
<path d="M37 172C39 173 39 173 39 173L37 172Z" fill="#FFCE91"/>
<path d="M236 171C238 172 238 172 238 172L236 171Z" fill="#FFCF92"/>
<path d="M222 171C224 172 224 172 224 172L222 171Z" fill="#FFCF92"/>
<path d="M264 170C266 171 266 171 266 171L264 170Z" fill="#FFCF92"/>
<path d="M238 170C240 171 240 171 240 171L238 170Z" fill="#FECF92"/>
<path d="M100 170C102 171 102 171 102 171L100 170Z" fill="#FFCF92"/>
<path d="M74 170C76 171 76 171 76 171L74 170Z" fill="#FFCF92"/>
<path d="M117 169C119 170 119 170 119 170L117 169Z" fill="#FECE91"/>
<path d="M98 169C100 170 100 170 100 170L98 169Z" fill="#FFCE91"/>
<path d="M72 169C74 170 74 170 74 170L72 169Z" fill="#FECE92"/>
<path d="M33 169C35 170 35 170 35 170L33 169Z" fill="#FFCE92"/>
<path d="M70 168C72 169 72 169 72 169L70 168Z" fill="#FFCF91"/>
<path d="M57 168C59 169 59 169 59 169L57 168Z" fill="#FFCF92"/>
<path d="M243 167C245 168 245 168 245 168L243 167Z" fill="#FECE91"/>
<path d="M121 167C123 168 123 168 123 168L121 167Z" fill="#FFCF92"/>
<path d="M68 167C70 168 70 168 70 168L68 167Z" fill="#FECE91"/>
<path d="M155 166C157 167 157 167 157 167L155 166Z" fill="#FFCE91"/>
<path d="M66 166C68 167 68 167 68 167L66 166Z" fill="#FECF92"/>
<path d="M270 165C272 166 272 166 272 166L270 165Z" fill="#FECF92"/>
<path d="M124 165C126 166 126 166 126 166L124 165Z" fill="#FFCF92"/>
<path d="M52 165C54 166 54 166 54 166L52 165Z" fill="#FECF92"/>
<path d="M61 163C63 164 63 164 63 164L61 163Z" fill="#FFCF92"/>
<path d="M49 163C51 164 51 164 51 164L49 163Z" fill="#FFCE91"/>
<path d="M252 161C254 162 254 162 254 162L252 161Z" fill="#FFCF92"/>
<path d="M76 161C78 162 78 162 78 162L76 161Z" fill="#FFCF92"/>
<path d="M73 160C75 161 75 161 75 161L73 160Z" fill="#FFCF92"/>
<path d="M45 160C47 161 47 161 47 161L45 160Z" fill="#FECF91"/>
<path d="M70 159C72 160 72 160 72 160L70 159Z" fill="#FFCF92"/>
<path d="M256 158C258 159 258 159 258 159L256 158Z" fill="#FFCF92"/>
<path d="M68 158C70 159 70 159 70 159L68 158Z" fill="#FECF91"/>
<path d="M166 157C168 158 168 158 168 158L166 157Z" fill="#FFCF92"/>
<path d="M65 157C67 158 67 158 67 158L65 157Z" fill="#FFCF92"/>
<path d="M52 157C54 158 54 158 54 158L52 157Z" fill="#FFCF92"/>
<path d="M41 157C43 158 43 158 43 158L41 157Z" fill="#FECE91"/>
<path d="M63 156C65 157 65 157 65 157L63 156Z" fill="#FECE91"/>
<path d="M241 155C243 156 243 156 243 156L241 155Z" fill="#FFCF92"/>
<path d="M61 155C63 156 63 156 63 156L61 155Z" fill="#FFCF92"/>
<path d="M243 154C245 155 245 155 245 155L243 154Z" fill="#FECF92"/>
<path d="M187 154C189 155 189 155 189 155L187 154Z" fill="#FFCF92"/>
<path d="M150 154C152 155 152 155 152 155L150 154Z" fill="#FFCF91"/>
<path d="M59 154C61 155 61 155 61 155L59 154Z" fill="#FFCE92"/>
<path d="M48 154C50 155 50 155 50 155L48 154Z" fill="#FECE91"/>
<path d="M245 153C247 154 247 154 247 154L245 153Z" fill="#FFCF92"/>
<path d="M57 153C59 154 59 154 59 154L57 153Z" fill="#FFCF92"/>
<path d="M55 152C57 153 57 153 57 153L55 152Z" fill="#FFCF92"/>
<path d="M173 151C175 152 175 152 175 152L173 151Z" fill="#FECE91"/>
<path d="M154 151C156 152 156 152 156 152L154 151Z" fill="#FFCF92"/>
<path d="M53 151C55 152 55 152 55 152L53 151Z" fill="#FFCE91"/>
<path d="M158 148C160 149 160 149 160 149L158 148Z" fill="#FFCF92"/>
<path d="M54 148C56 149 56 149 56 149L54 148Z" fill="#FFCF92"/>
<path d="M186 138C188 139 188 139 188 139L186 138Z" fill="#FFCF92"/>
<path d="M121 135C123 136 123 136 123 136L121 135Z" fill="#FFCE91"/>
<path d="M117 132C119 133 119 133 119 133L117 132Z" fill="#FECE91"/>
<path d="M165 127C167 128 167 128 167 128L165 127Z" fill="#FFCE92"/>
<path d="M150 127C152 128 152 128 152 128L150 127Z" fill="#FFCE91"/>
<path d="M107 127C109 128 109 128 109 128L107 127Z" fill="#FFCF91"/>
<path d="M162 126C164 127 164 127 164 127L162 126Z" fill="#FFCF92"/>
<path d="M89 125C91 126 91 126 91 126L89 125Z" fill="#FECF92"/>
<path d="M127 124C129 125 129 125 129 125L127 124Z" fill="#FFCF92"/>
<path d="M124 122C126 123 126 123 126 123L124 122Z" fill="#FFCF92"/>
<path d="M122 121C124 122 124 122 124 122L122 121Z" fill="#FFCE91"/>
<path d="M46 121C48 122 48 122 48 122L46 121Z" fill="#FFCF92"/>
<path d="M175 118C177 119 177 119 177 119L175 118Z" fill="#FECF91"/>
<path d="M116 118C118 119 118 119 118 119L116 118Z" fill="#FFCE91"/>
<path d="M114 117C116 118 116 118 116 118L114 117Z" fill="#FFCE91"/>
<path d="M81 116C83 117 83 117 83 117L81 116Z" fill="#FECE92"/>
<path d="M57 116C59 117 59 117 59 117L57 116Z" fill="#FFCE91"/>
<path d="M169 115C171 116 171 116 171 116L169 115Z" fill="#FECE92"/>
<path d="M146 115C148 116 148 116 148 116L146 115Z" fill="#FFCF92"/>
<path d="M84 114C86 115 86 115 86 115L84 114Z" fill="#FFCF92"/>
<path d="M51 112C53 113 53 113 53 113L51 112Z" fill="#FFCF92"/>
<path d="M30 112C32 113 32 113 32 113L30 112Z" fill="#FFCF92"/>
<path d="M48 111C50 112 50 112 50 112L48 111Z" fill="#FFCF92"/>
<path d="M32 111C34 112 34 112 34 112L32 111Z" fill="#FFCF91"/>
<path d="M95 104C97 105 97 105 97 105L95 104Z" fill="#FFCF92"/>
<path d="M33 104C35 105 35 105 35 105L33 104Z" fill="#FFCF92"/>
<path d="M97 103C99 104 99 104 99 104L97 103Z" fill="#FECF91"/>
<path d="M69 98C71 99 71 99 71 99L69 98Z" fill="#FFCF91"/>
<path d="M56 98C58 99 58 99 58 99L56 98Z" fill="#FFCE91"/>
<path d="M249 86C251 87 251 87 251 87L249 86Z" fill="#FECF92"/>
<path d="M247 85C249 86 249 86 249 86L247 85Z" fill="#FECF92"/>
<path d="M200 85C202 86 202 86 202 86L200 85Z" fill="#FFCE92"/>
<path d="M102 84C104 85 104 85 104 85L102 84Z" fill="#FECE91"/>
<path d="M41 75C43 76 43 76 43 76L41 75Z" fill="#FECE91"/>
<path d="M238 70C240 71 240 71 240 71L238 70Z" fill="#FECF92"/>
<path d="M227 68C229 69 229 69 229 69L227 68Z" fill="#FFCE92"/>
<path d="M189 67C191 68 191 68 191 68L189 67Z" fill="#FFCE92"/>
<path d="M258 65C260 66 260 66 260 66L258 65Z" fill="#FFCE91"/>
<path d="M186 65C188 66 188 66 188 66L186 65Z" fill="#FECF92"/>
<path d="M101 65C103 66 103 66 103 66L101 65Z" fill="#FFCF92"/>
<path d="M255 64C257 65 257 65 257 65L255 64Z" fill="#FFCF92"/>
<path d="M127 64C129 65 129 65 129 65L127 64Z" fill="#FFCF91"/>
<path d="M112 64C114 65 114 65 114 65L112 64Z" fill="#FECE92"/>
<path d="M104 64C106 65 106 65 106 65L104 64Z" fill="#FFCE91"/>
<path d="M253 63C255 64 255 64 255 64L253 63Z" fill="#FFCF92"/>
<path d="M165 63C167 64 167 64 167 64L165 63Z" fill="#FFCE92"/>
<path d="M107 63C109 64 109 64 109 64L107 63Z" fill="#FFCF92"/>
<path d="M250 62C252 63 252 63 252 63L250 62Z" fill="#FECE91"/>
<path d="M109 62C111 63 111 63 111 63L109 62Z" fill="#FFCF92"/>
<path d="M191 61C193 62 193 62 193 62L191 61Z" fill="#FFCF92"/>
<path d="M45 61C47 62 47 62 47 62L45 61Z" fill="#FECE92"/>
<path d="M193 60C195 61 195 61 195 61L193 60Z" fill="#FFCF91"/>
<path d="M254 53C256 54 256 54 256 54L254 53Z" fill="#FECE91"/>
<path d="M141 52C143 53 143 53 143 53L141 52Z" fill="#FFCF92"/>
<path d="M144 51C146 52 146 52 146 52L144 51Z" fill="#FECE91"/>
<path d="M261 50C263 51 263 51 263 51L261 50Z" fill="#FFCE91"/>
<path d="M208 50C210 51 210 51 210 51L208 50Z" fill="#FFCE92"/>
<path d="M147 50C149 51 149 51 149 51L147 50Z" fill="#FECE92"/>
<path d="M206 49C208 50 208 50 208 50L206 49Z" fill="#FFCE91"/>
<path d="M150 49C152 50 152 50 152 50L150 49Z" fill="#FECE91"/>
<path d="M247 47C249 48 249 48 249 48L247 47Z" fill="#FFCE92"/>
<path d="M42 46C44 47 44 47 44 47L42 46Z" fill="#FFCF91"/>
<path d="M255 45C257 46 257 46 257 46L255 45Z" fill="#FFCE91"/>
<path d="M55 45C57 46 57 46 57 46L55 45Z" fill="#FFCE92"/>
<path d="M243 44C245 45 245 45 245 45L243 44Z" fill="#FFCE91"/>
<path d="M46 43C48 44 48 44 48 44L46 43Z" fill="#FFCF92"/>
<path d="M251 42C253 43 253 43 253 43L251 42Z" fill="#FFCE92"/>
<path d="M240 42C242 43 242 43 242 43L240 42Z" fill="#FFCF92"/>
<path d="M60 41C62 42 62 42 62 42L60 41Z" fill="#FECF92"/>
<path d="M237 40C239 41 239 41 239 41L237 40Z" fill="#FFCF92"/>
<path d="M112 40C114 41 114 41 114 41L112 40Z" fill="#FFCF91"/>
<path d="M50 40C52 41 52 41 52 41L50 40Z" fill="#FFCF91"/>
<path d="M63 39C65 40 65 40 65 40L63 39Z" fill="#FECF92"/>
<path d="M245 38C247 39 247 39 247 39L245 38Z" fill="#FFCF92"/>
<path d="M115 38C117 39 117 39 117 39L115 38Z" fill="#FFCF91"/>
<path d="M106 38C108 39 108 39 108 39L106 38Z" fill="#FFCE92"/>
<path d="M268 37C270 38 270 38 270 38L268 37Z" fill="#FECE92"/>
<path d="M232 37C234 38 234 38 234 38L232 37Z" fill="#FECE91"/>
<path d="M108 37C110 38 110 38 110 38L108 37Z" fill="#FFCF92"/>
<path d="M55 37C57 38 57 38 57 38L55 37Z" fill="#FFCE92"/>
<path d="M242 36C244 37 244 37 244 37L242 36Z" fill="#FECF92"/>
<path d="M230 36C232 37 232 37 232 37L230 36Z" fill="#FECE92"/>
<path d="M110 36C112 37 112 37 112 37L110 36Z" fill="#FFCE92"/>
<path d="M68 36C70 37 70 37 70 37L68 36Z" fill="#FFCF92"/>
<path d="M240 35C242 36 242 36 242 36L240 35Z" fill="#FECE91"/>
<path d="M228 35C230 36 230 36 230 36L228 35Z" fill="#FFCE92"/>
<path d="M112 35C114 36 114 36 114 36L112 35Z" fill="#FECE91"/>
<path d="M70 35C72 36 72 36 72 36L70 35Z" fill="#FFCF92"/>
<path d="M58 35C60 36 60 36 60 36L58 35Z" fill="#FFCE92"/>
<path d="M226 34C228 35 228 35 228 35L226 34Z" fill="#FFCE92"/>
<path d="M72 34C74 35 74 35 74 35L72 34Z" fill="#FECE92"/>
<path d="M60 34C62 35 62 35 62 35L60 34Z" fill="#FFCF92"/>
<path d="M34 34C36 35 36 35 36 35L34 34Z" fill="#FFCF91"/>
<path d="M263 33C265 34 265 34 265 34L263 33Z" fill="#FFCE91"/>
<path d="M224 33C226 34 226 34 226 34L224 33Z" fill="#FFCE92"/>
<path d="M74 33C76 34 76 34 76 34L74 33Z" fill="#FFCF92"/>
<path d="M62 33C64 34 64 34 64 34L62 33Z" fill="#FFCF92"/>
<path d="M222 32C224 33 224 33 224 33L222 32Z" fill="#FFCF92"/>
<path d="M76 32C78 33 78 33 78 33L76 32Z" fill="#FFCE92"/>
<path d="M64 32C66 33 66 33 66 33L64 32Z" fill="#FFCF92"/>
<path d="M220 31C222 32 222 32 222 32L220 31Z" fill="#FECF92"/>
<path d="M78 31C80 32 80 32 80 32L78 31Z" fill="#FECE91"/>
<path d="M66 31C68 32 68 32 68 32L66 31Z" fill="#FECE92"/>
<path d="M38 31C40 32 40 32 40 32L38 31Z" fill="#FFCE92"/>
<path d="M259 30C261 31 261 31 261 31L259 30Z" fill="#FFCE91"/>
<path d="M217 30C219 31 219 31 219 31L217 30Z" fill="#FFCE92"/>
<path d="M81 30C83 31 83 31 83 31L81 30Z" fill="#FFCF92"/>
<path d="M68 30C70 31 70 31 70 31L68 30Z" fill="#FECF92"/>
<path d="M228 29C230 30 230 30 230 30L228 29Z" fill="#FFCF92"/>
<path d="M215 29C217 30 217 30 217 30L215 29Z" fill="#FFCE92"/>
<path d="M83 29C85 30 85 30 85 30L83 29Z" fill="#FFCF92"/>
<path d="M70 29C72 30 72 30 72 30L70 29Z" fill="#FECF92"/>
<path d="M226 28C228 29 228 29 228 29L226 28Z" fill="#FECE91"/>
<path d="M212 28C214 29 214 29 214 29L212 28Z" fill="#FFCF92"/>
<path d="M86 28C88 29 88 29 88 29L86 28Z" fill="#FFCE91"/>
<path d="M72 28C74 29 74 29 74 29L72 28Z" fill="#FFCF92"/>
<path d="M42 28C44 29 44 29 44 29L42 28Z" fill="#FECF92"/>
<path d="M224 27C226 28 226 28 226 28L224 27Z" fill="#FFCF92"/>
<path d="M210 27C212 28 212 28 212 28L210 27Z" fill="#FFCF92"/>
<path d="M75 27C77 28 77 28 77 28L75 27Z" fill="#FFCF92"/>
<path d="M221 26C223 27 223 27 223 27L221 26Z" fill="#FFCE91"/>
<path d="M207 26C209 27 209 27 209 27L207 26Z" fill="#FECE92"/>
<path d="M77 26C79 27 79 27 79 27L77 26Z" fill="#FECF92"/>
<path d="M45 26C47 27 47 27 47 27L45 26Z" fill="#FFCF92"/>
<path d="M219 25C221 26 221 26 221 26L219 25Z" fill="#FFCF91"/>
<path d="M250 24C252 25 252 25 252 25L250 24Z" fill="#FECE91"/>
<path d="M216 24C218 25 218 25 218 25L216 24Z" fill="#FFCF92"/>
<path d="M196 24C198 25 198 25 198 25L196 24Z" fill="#FFCE91"/>
<path d="M113 24C115 25 115 25 115 25L113 24Z" fill="#FFCE92"/>
<path d="M82 24C84 25 84 25 84 25L82 24Z" fill="#FFCF92"/>
<path d="M213 23C215 24 215 24 215 24L213 23Z" fill="#FFCF92"/>
<path d="M194 23C196 24 196 24 196 24L194 23Z" fill="#FFCF92"/>
<path d="M85 23C87 24 87 24 87 24L85 23Z" fill="#FFCF92"/>
<path d="M50 23C52 24 52 24 52 24L50 23Z" fill="#FECF92"/>
<path d="M210 22C212 23 212 23 212 23L210 22Z" fill="#FFCF92"/>
<path d="M191 22C193 23 193 23 193 23L191 22Z" fill="#FFCF92"/>
<path d="M88 22C90 23 90 23 90 23L88 22Z" fill="#FFCF92"/>
<path d="M245 21C247 22 247 22 247 22L245 21Z" fill="#FFCF91"/>
<path d="M207 21C209 22 209 22 209 22L207 21Z" fill="#FFCE92"/>
<path d="M119 21C121 22 121 22 121 22L119 21Z" fill="#FFCF92"/>
<path d="M243 20C245 21 245 21 245 21L243 20Z" fill="#FECE91"/>
<path d="M55 20C57 21 57 21 57 21L55 20Z" fill="#FECE91"/>
<path d="M241 19C243 20 243 20 243 20L241 19Z" fill="#FECE92"/>
<path d="M122 19C124 20 124 20 124 20L122 19Z" fill="#FFCF92"/>
<path d="M57 19C59 20 59 20 59 20L57 19Z" fill="#FECE92"/>
<path d="M239 18C241 19 241 19 241 19L239 18Z" fill="#FFCF92"/>
<path d="M144 18C146 19 146 19 146 19L144 18Z" fill="#FFCF92"/>
<path d="M59 18C61 19 61 19 61 19L59 18Z" fill="#FFCE91"/>
<path d="M237 17C239 18 239 18 239 18L237 17Z" fill="#FFCE92"/>
<path d="M61 17C63 18 63 18 63 18L61 17Z" fill="#FFCF92"/>
<path d="M235 16C237 17 237 17 237 17L235 16Z" fill="#FECF91"/>
<path d="M63 16C65 17 65 17 65 17L63 16Z" fill="#FFCF92"/>
<path d="M233 15C235 16 235 16 235 16L233 15Z" fill="#FFCF92"/>
<path d="M65 15C67 16 67 16 67 16L65 15Z" fill="#FFCE91"/>
<path d="M231 14C233 15 233 15 233 15L231 14Z" fill="#FFCF92"/>
<path d="M229 13C231 14 231 14 231 14L229 13Z" fill="#FFCF92"/>
<path d="M70 13C72 14 72 14 72 14L70 13Z" fill="#FFCF92"/>
<path d="M226 12C228 13 228 13 228 13L226 12Z" fill="#FFCE91"/>
<path d="M72 12C74 13 74 13 74 13L72 12Z" fill="#FFCF92"/>
<path d="M75 11C77 12 77 12 77 12L75 11Z" fill="#FFCF92"/>
<path d="M221 10C223 11 223 11 223 11L221 10Z" fill="#FECE91"/>
<path d="M218 9C220 10 220 10 220 10L218 9Z" fill="#FFCF92"/>
<path d="M80 9C82 10 82 10 82 10L80 9Z" fill="#FFCE92"/>
<path d="M215 8C217 9 217 9 217 9L215 8Z" fill="#FFCF92"/>
<path d="M83 8C85 9 85 9 85 9L83 8Z" fill="#FFCF92"/>
<path d="M212 7C214 8 214 8 214 8L212 7Z" fill="#FFCF92"/>
</svg>
