<svg width="16" height="19" viewBox="0 0 16 19" fill="none" xmlns="http://www.w3.org/2000/svg">
<path d="M13.906 4.59956C13.7845 4.53677 13.6663 4.46794 13.5517 4.39332C13.2184 4.173 12.9129 3.9134 12.6416 3.62011C11.9629 2.84352 11.7094 2.05568 11.616 1.50409H11.6198C11.5418 1.04624 11.574 0.75 11.5789 0.75H8.48755V12.7037C8.48755 12.8641 8.48755 13.0228 8.4808 13.1795C8.4808 13.199 8.47893 13.217 8.4778 13.238C8.4778 13.2466 8.4778 13.2556 8.47593 13.2646C8.47593 13.2669 8.47593 13.2691 8.47593 13.2714C8.44334 13.7003 8.30586 14.1146 8.07556 14.4779C7.84527 14.8412 7.52923 15.1423 7.15524 15.3548C6.76547 15.5765 6.32462 15.6928 5.87618 15.6923C4.43588 15.6923 3.26856 14.5178 3.26856 13.0674C3.26856 11.617 4.43588 10.4425 5.87618 10.4425C6.14883 10.4423 6.41979 10.4852 6.67902 10.5696L6.68277 7.42204C5.89582 7.32039 5.09634 7.38293 4.33477 7.60572C3.57321 7.82851 2.86607 8.20672 2.25799 8.71648C1.72516 9.17943 1.27722 9.73181 0.934305 10.3488C0.803811 10.5738 0.311461 11.4778 0.251839 12.9451C0.214341 13.778 0.464453 14.6408 0.583697 14.9974V15.0049C0.658693 15.2149 0.949304 15.9315 1.42291 16.5356C1.8048 17.0202 2.256 17.4458 2.76196 17.7989V17.7914L2.76946 17.7989C4.26601 18.8158 5.92531 18.7491 5.92531 18.7491C6.21254 18.7375 7.17474 18.7491 8.26744 18.2313C9.47938 17.6572 10.1693 16.8018 10.1693 16.8018C10.6101 16.2908 10.9606 15.7083 11.2058 15.0795C11.4855 14.3442 11.5789 13.4622 11.5789 13.1098V6.76807C11.6164 6.79057 12.1159 7.12093 12.1159 7.12093C12.1159 7.12093 12.8355 7.58216 13.9582 7.88252C14.7636 8.09626 15.8488 8.14126 15.8488 8.14126V5.07241C15.4686 5.11366 14.6965 4.99366 13.906 4.59956Z" fill="white"/>
</svg>
