<svg width="432" height="512" viewBox="0 0 432 512" fill="none" xmlns="http://www.w3.org/2000/svg">
<path d="M357.68 62.0996C366.22 69.7296 372.87 80.3396 379.5 89.5596C385.51 97.9296 391.78 104.65 395.24 114.6C404.78 142 406.39 172.01 410.83 200.48C411.94 207.56 414.44 215.52 415.07 222.46C415.52 227.45 414.6 233.09 415.13 237.94C415.47 241.03 418.01 243.6 416.97 247.07C416.84 247.51 411.49 253.33 410.78 253.98C408.72 255.88 403.66 256.48 404.45 259.77C404.84 261.37 406.38 259.03 406.87 259.54C407.11 261.36 405.4 263.49 405.44 265.06C405.52 268.48 407.67 274.96 408.28 278.76C410.38 291.76 411.35 305.6 413.72 318.48C415.55 328.41 419.19 338.05 420.89 348.21C422.93 360.4 423.85 370.84 424.35 383.1C424.89 396.16 430.51 408.07 431.56 420.07C431.9 423.99 431.49 428.2 431.6 432.17C432.12 450.33 431.34 471.99 417.3 485.32C416.64 485.94 415.64 486.1 414.91 486.81C413.53 488.16 412.89 490.95 411.24 492.85C407.53 497.15 400.38 499.17 395.11 500.99C371.96 508.97 341.83 508.99 317.3 509.1C295.9 509.19 274.79 507.12 253.23 508.14C243.99 508.58 234.3 510.18 225.09 510.58C206.1 511.41 187.79 508.9 168.78 509.61C143.69 510.55 114.55 512.88 89.6401 511.04C81.7401 510.46 74.6301 507.24 67.2401 506.25C62.9501 505.68 58.0101 506.08 53.7701 505.64C44.0701 504.63 33.3101 499.37 24.8101 494.79C19.1201 491.72 13.1601 489.27 9.57013 483.81C-2.95987 464.76 -0.979874 434.33 3.70013 412.95C12.2701 373.8 25.6301 333.9 37.3201 295.56C38.9801 290.12 41.8001 284.33 43.0601 278.96C44.3201 273.59 44.2801 267.44 46.5401 262.18L33.2901 242.29C34.8301 235.78 33.8201 228.2 35.0501 221.43C35.6501 218.14 37.9801 214.39 38.3801 211.17C39.2101 204.53 38.5101 196.56 38.8901 189.82C39.3301 181.98 41.1701 173.5 42.4501 165.71C46.7501 139.46 48.4101 111.79 61.3301 87.9596C66.4601 78.4896 73.0101 66.0696 80.6501 58.7296C107.44 33.0296 144.59 20.9896 180.42 14.3096C189.33 15.8396 198.27 14.6896 207.11 13.3296L207.35 14.7796C206.92 15.3096 197.72 15.5596 196.06 15.8796C188.98 17.2196 170.93 27.7496 163.99 31.8696C143.32 44.1496 130.15 57.8296 115.63 76.7196C91.4901 108.12 84.8901 144.29 77.3901 182.2C71.4701 212.15 66.4601 242.29 60.6401 272.27C60.4701 273.17 59.3401 274.73 59.5001 275.06C65.7201 279.83 73.3301 282.25 80.1801 285.97C82.1101 287.02 83.7201 288.6 85.3501 289.54C95.7301 295.58 124.18 297.47 136.72 297.88C162.44 298.7 188.36 300.69 214.42 299.84C226.2 299.46 238.01 297.66 249.84 297.66C266.95 297.66 281.47 299.99 298.81 297.81C310.21 296.38 321.67 294.07 332.98 292.17C349.3 289.44 367.32 287.99 381.98 280.49C382.72 280.11 386.82 277.92 386.91 277.65C386.89 274.28 386.84 270.37 386.48 267.04C384.56 249.06 380.31 235.73 376.13 218.63C371.95 201.53 369.5 185 363.41 167.75C358.48 153.8 350.3 140.36 344.5 126.45C341.8 119.97 339.95 113.11 337.05 106.71C334.75 101.64 331.6 96.7596 329.27 91.6696C324.9 82.1596 321.86 71.9596 316.01 63.1796C309.51 53.4196 303.91 52.8696 294.41 47.3996C282.58 40.5796 270.91 33.1096 260.01 24.9996C256.67 22.5096 248.23 16.2096 244.71 15.0396C244.03 14.8196 243.32 15.2996 242.8 15.0496C242.28 14.7996 240.85 12.6796 240.85 11.8796C241.77 11.0496 246.54 15.4296 247.57 16.0796C263.86 26.1896 279.08 37.4096 295.86 46.9196C300.82 49.7296 309.01 52.6996 312.68 56.7996C317.66 62.3696 321.81 71.2396 324.91 78.0696C333.98 97.9796 342.21 118.22 351.27 138.13C357.9 152.7 364.26 165.08 368.86 180.75C372.54 193.28 374.27 206.19 377.39 218.83C380.79 232.59 384 241.89 385.99 256.36C386.91 263.07 388.3 269.7 388.42 276.52L392.3 274.57L391.33 271.67C392.46 271.41 392.79 272.87 393.61 273.07C394.9 273.4 401.48 267.43 402.49 266.08C404.87 262.9 402.82 261.85 402.95 258.8C403.1 255.17 407.41 255.18 409.8 252.98C410.64 252.2 415.92 246.17 416.01 245.57C416.25 244.03 413.99 240.04 413.72 237.85C413.21 233.73 414.38 229.53 414.15 225.28C413.75 218.16 411.01 209.64 409.86 202.38C405.48 174.61 403.5 146.68 395.57 119.56C391.62 106.05 379.29 90.2996 370.66 78.9296C365.21 71.7596 359.1 64.2296 351.69 59.0596C348.12 56.5696 344.03 54.7796 340.42 52.3696C328.88 44.6896 319.49 37.2296 306.9 30.5396C288.75 20.8896 267.69 12.1196 246.92 10.8996C244.36 10.7496 242.33 11.3796 240.14 11.3996C237.95 11.4196 240.33 9.81964 241.66 9.59964C245.5 8.96964 258.06 11.0096 262.41 11.9196C283.96 16.4396 308.49 28.5096 326.93 40.6096C331.61 43.6796 335.81 47.6996 340.5 50.8196C346.35 54.7196 352.28 57.2196 357.68 62.0496V62.0996ZM189.4 16.2896C186.2 16.5696 183.11 15.6896 179.91 15.7796C172.81 15.9896 167.77 18.2096 161.24 19.9296C132.17 27.5796 105.42 37.5696 83.0701 58.2796C74.4301 66.2896 67.0401 80.0096 61.4601 90.5696C49.6501 112.91 47.3201 142.86 43.4001 167.67C42.3701 174.21 40.7701 181.95 40.3601 188.42C39.9001 195.65 40.6401 204.04 39.8201 211.18C39.4301 214.52 37.2701 217.8 36.6001 221.07C35.6001 225.89 34.9601 235.39 35.2101 240.29C35.5301 246.51 39.3501 249.19 42.7101 254.05C44.3001 256.36 45.1101 260.31 48.3501 260.51L58.0901 273.15C59.2401 273.36 58.6801 272.63 58.8201 271.96C65.1301 242.83 70.2001 213.46 75.9301 184.19C83.3701 146.2 90.1001 108.27 114.16 76.7596C127.94 58.7196 140.04 45.8096 159.33 33.5696C168.28 27.8896 177.76 23.7196 186.8 18.3196C187.68 17.7996 188.91 17.2296 189.39 16.2996L189.4 16.2896ZM48.6101 262.96C47.6201 262.11 46.9501 265.72 46.8201 266.26C45.6801 270.81 45.5101 275.84 44.4001 280.34C43.1701 285.32 40.4801 290.65 38.9101 295.72C26.9101 334.36 13.6201 374.95 5.26012 414.53C1.19012 433.8 -0.469874 460.09 8.57013 478.07C12.8101 486.5 16.1201 487.8 24.0301 492.22C33.9301 497.76 45.6801 503.32 57.1301 504.27C61.1501 504.61 65.6201 504.13 69.7101 504.8C76.3501 505.89 82.2401 508.68 89.6301 509.15C110.9 510.52 133.99 509.13 155.19 508.17C162.33 507.85 170.49 507.1 177.49 507.18C192.41 507.35 206.93 509.79 222.2 509.15C243.21 508.28 263.48 505.39 284.8 506.22C312.68 507.31 337.09 507.7 364.95 504.81C370.1 504.28 375.78 504.65 380.79 503.66C385.8 502.67 399.24 498.18 404.12 495.92C411.29 492.59 411.15 486.76 414.89 484.36C418.63 481.96 421.21 479.95 423.32 475.8C429.68 463.3 431.31 443.12 430.73 429.26C430.05 413.11 424.25 399.12 423.09 382.71C422.16 369.64 421.08 357.07 418.81 344.03C417.46 336.31 414.34 328.58 412.87 320.84C410.21 306.84 409.26 292 406.84 277.83C406.55 276.14 405.1 266.76 404.23 266.36L398.64 272.43L399.64 272.91L399.62 274.13L398.65 273.89C399.82 278.75 399.25 284.09 400.16 288.89C401.28 294.79 403.7 299.14 404.4 306.01C406.67 328.37 406.24 352.87 404.99 375.39C404.13 390.82 398.35 409.17 391.14 422.72C382.78 438.43 378.49 443.04 360.4 446.84C339.71 451.19 319.4 451.64 298.39 449.38C278.3 452.1 257.91 451.52 237.75 451.33C221.21 451.17 203.92 454.37 187.26 455.25C180.07 455.63 172.99 455.22 165.9 455.21C151.04 455.18 134.38 456.21 119.77 455.23C114.87 454.9 110.04 453.2 105.19 452.81C100.67 452.45 95.6601 453.23 91.1701 452.75C84.9501 452.09 76.0201 449.52 69.6401 448.07C58.2101 445.47 53.2401 443.74 45.2601 434.95C42.0001 431.36 37.4401 428.63 34.6501 424.8C23.4301 409.39 27.2501 372.56 29.7101 354C32.3001 334.54 39.1901 315.88 43.4601 296.86C44.4001 292.68 44.4901 288.34 45.4801 284.32C46.6301 279.66 50.6601 272.3 50.9801 267.91C51.0501 266.89 49.2301 263.47 48.6301 262.96H48.6101ZM394.83 274.7C394.38 275.44 396.49 286.01 396.68 287.97C397.92 300.95 400.7 317.62 400.08 330.2C399.48 342.26 398.89 357.16 397.04 368.92C395.83 376.57 391.54 396.45 388.04 402.65C374.4 426.85 321.74 433.59 296.43 435.33C274.33 436.84 252.47 434.3 230.39 434.34C194.39 434.42 158.22 437.09 122.14 436.32C101.79 435.89 66.3801 433.08 50.5501 419.07C43.7101 413.01 34.8701 390.77 34.0601 381.67C32.9901 369.67 36.7901 357.77 38.7901 346.11C42.2401 325.97 45.4601 305.85 50.6001 286.06C51.7701 281.55 53.6301 276.88 54.8101 272.33L52.0201 268.3C50.6301 274.52 47.0701 280.95 45.8201 287.11C39.3001 319.23 29.1101 350.38 28.1901 383.63C27.8301 396.61 28.5001 415.24 37.2101 425.64C39.1901 428.01 41.9201 429.41 44.0301 431.45C46.5201 433.87 48.6601 437.14 51.3001 439.23C59.5201 445.75 78.2701 449.03 88.8201 450.74C94.5601 451.67 99.6301 450.93 105.18 451.37C109.72 451.73 114.64 453.45 119.27 453.78C134.59 454.87 153.12 454.16 168.76 454.29C192.96 454.5 216.92 450.29 241.09 450.41C253.57 450.47 267.06 450.47 279.48 449.92C285.52 449.65 292.63 447.96 298.39 447.92C301.5 447.9 305.84 448.85 309.05 448.95C326.41 449.48 340.85 449.25 357.97 445.88C376.44 442.24 380.91 439.01 389.67 422.72C399.81 403.87 402.8 386.92 403.93 365.71C404.3 358.74 404.37 351.31 404.44 344.31C404.58 330.61 404.44 315.11 402.44 301.64C401.72 296.82 399.29 292.65 398.77 288.31C398.2 283.49 398.54 278.5 397.18 273.64L394.84 274.7H394.83ZM56.8701 273.64C56.0101 273.46 55.9001 273.85 55.5301 274.47C54.8101 275.67 52.1001 284.98 51.5701 287.02C44.4001 314.41 40.9501 342.79 35.5901 370.57C34.3301 386.77 42.4301 412.86 56.6301 421.75C81.2101 437.13 129.27 434.98 157.6 434.34C190.41 433.6 223.09 432.48 255.69 433.87C288.01 435.24 319.31 434.12 350.48 424.78C365.24 420.35 384.08 412.59 389.32 396.62C395.82 376.81 397.74 351.99 398.67 331.2C399.22 318.99 397.04 309.88 395.74 298.16C395.05 291.87 395.17 285.34 394.22 278.8C394.12 278.11 394.03 275.79 393.07 276.07L383.58 281.7C385.35 286.01 384.23 290.74 384.57 295.25C386.15 315.99 389.35 342.77 383.25 362.89C380.52 371.89 371.96 394.97 365.41 400.88C355.13 410.16 343.79 409.84 330.94 411.07C312.32 412.85 291.76 415.05 273.19 414.93C245.28 414.75 217.58 415.22 189.65 415.9C177.89 416.19 166.05 417.71 154.24 416.89C138.96 415.83 122.35 412.51 107.1 412.57C101.15 412.59 94.2301 413.77 88.2201 413.49C68.0501 412.56 49.9101 393.41 48.6401 373.45C47.9401 362.57 50.2101 346.23 51.6301 335.13C53.1401 323.38 56.2601 315.66 59.6901 304.83C62.1701 297.01 64.3901 289.11 66.6601 281.23C63.1201 279.28 58.6601 277.5 56.9001 273.65L56.8701 273.64ZM77.0901 381.6C65.7901 371.82 62.5301 358.64 65.7501 343.94C68.2901 332.38 72.1001 320.11 75.0801 308.61C76.8001 301.99 76.9001 294.66 81.0501 288.93C77.8901 286.01 73.4401 284.57 69.7101 282.4L69.0001 283.84L67.3001 283.34C62.9701 300.49 55.2901 315.94 53.0501 333.67C52.8301 335.43 53.1901 337.26 52.9801 338.94C49.8301 363.98 44.4101 387.93 68.3701 404.65C84.6701 416.02 95.0101 410.7 112.96 411.52C130.49 412.32 147.86 415.34 165.35 415.41C182.84 415.48 199.33 414.37 216.37 413.95C223.97 413.76 232.03 413.01 239.63 412.97C246.01 412.94 253.13 413.94 259.53 414C283.18 414.24 308.31 411.98 331.88 409.6C344.23 408.35 352.65 409.07 363.14 401.05C370.63 395.33 378.13 374.03 381.15 364.69C385.99 349.73 385.73 330.26 385.03 314.66C384.72 307.87 383.59 301.84 383.09 295.24C382.96 293.53 383.69 282.4 381.87 282.39L365.67 288.51C365.6 290.43 365.52 292.38 365.59 294.29C366.31 315.71 370.03 337.37 368.54 358.87C367.94 367.48 361.55 378.78 354.11 383.28C339.42 392.17 317.02 393.88 300.34 394.03C279.81 394.22 259.6 397.04 239.17 397.47C229.34 397.68 219.52 395.94 209.52 396.46C205.48 396.67 200.99 397.74 196.91 397.93C180.67 398.7 163.07 394.23 146.91 393.08C131.57 391.99 113.61 393.85 98.9201 391.06C90.1301 389.39 83.7501 387.36 77.0801 381.59L77.0901 381.6ZM363.07 288.79C356.77 289.64 350.62 291.39 344.37 292.44C326.11 295.53 296.11 301.88 278.49 300.82C257.78 299.58 240.46 299.82 219.75 300.83C205.8 301.51 191.88 301.64 177.93 301.73C168.33 301.79 160.51 300.36 151.29 299.86C136.93 299.07 123.56 299.35 109.12 297.37C100.19 296.14 89.4801 295.06 82.3601 289.23C79.9101 289.24 76.7901 306.31 76.0601 309.09C73.8001 317.69 71.7701 326.14 69.7601 334.83C68.2601 341.32 66.0101 345.91 65.6201 353.03C64.9001 366.45 74.3601 382.43 87.4401 386.55C107.84 392.97 126.99 389.92 147.89 391.64C161.41 392.75 175.04 395.78 188.65 396.47C199.99 397.04 211.09 394.54 222.67 395.02C249.25 396.11 273.59 392.64 299.86 392.59C316.17 392.56 330.35 391.6 345.84 385.7C356.31 381.71 361.71 376.39 365.76 365.81C367.75 360.61 367.02 356.3 367.05 351.12C367.18 332.7 366.21 312.53 364.16 294.28C364.01 292.96 364.59 289.57 363.68 288.91L363.06 288.8L363.07 288.79Z" fill="black"/>
<path d="M184.63 177.92C190.66 176 194.06 179.39 198.39 182.83C199.93 180.25 201.51 178.7 204.72 178.91C206.19 179.01 211.37 180.81 210.77 182.84C212.82 182.84 213.9 180.69 215.98 180.05C218.85 179.16 224.89 179.02 227.61 180.32C228.81 180.89 230.37 182.63 231.67 183.08C234.85 184.17 240.8 177.84 244.43 177.96C245.91 180.1 247.54 180.9 247.42 183.83C251 182.42 255.57 176.9 259.51 177.52C261.71 177.86 265.89 183.34 266.34 183.33C267.37 182.49 267.68 180.65 268.88 180.05C271.02 178.97 277.29 178.69 278.96 180.43C281.03 182.6 280.13 191.55 280.62 194.69L283.33 195.48C284.15 195.52 283.08 191.9 283.1 191.35C283.17 188.85 284.64 182.26 286.24 180.41C288.42 177.87 289.36 178.84 292.06 178.46C294.1 178.17 293.95 178.06 296.44 178.04C297.48 178.04 298.85 177.64 299.66 177.78C303.14 178.35 307.24 187.53 303.62 188.6C302 189.07 297.49 188.19 296.88 186.23C295.24 186.05 293.28 189.54 296.07 190.02C298.63 190.45 299.26 189.88 301.65 191.61C305.71 194.55 305.55 198.31 304.81 202.89C304 207.98 297.72 209.91 293.23 209.28C289.63 208.78 284.1 207.7 281.88 204.72C278.83 209.52 273.06 207.7 268.33 208.15C265.67 208.4 262.81 208.81 260.07 209.11C259.09 209.22 258.3 210.04 257.12 210.09C254.08 210.22 253.03 207.68 252.77 207.65C252.54 207.63 250.14 209.28 249.25 209.46C247.34 209.85 239.6 210.31 237.74 210.02C236.01 209.75 234.91 208.17 233.35 208.07C231.79 207.97 229.83 208.99 228.02 209.1C226.36 209.2 221.37 208.87 219.76 208.59C218.31 208.33 217.11 206.31 217.13 204.95C217.16 202.85 219.53 202.7 219.9 201.47C220.04 200.99 220.5 196.04 220.49 195.27C220.47 193.63 219.51 186.97 217.34 187.21C214.94 187.48 214.28 192.42 214.14 194.29C214.07 195.28 214.64 196.17 214.6 197.13C214.54 198.39 213.53 201.52 213.75 202.43C214.08 203.8 217.11 204.22 214.92 207.17C213.13 209.58 204.2 209.95 201.28 209.6C200.12 209.46 200.44 208.2 199.36 207.73C193.61 210.46 188.65 213.09 182.09 211.29C181.65 211.17 178.23 209.75 178.04 209.62C177.75 209.41 177.13 205.89 175.32 205.68C175.36 206.96 174.67 207.98 173.51 208.49C166.88 209.3 159.55 211.32 153.49 207.35C147.43 203.38 154.45 200.64 154.83 198.05C154.97 197.08 154.32 195.26 154.41 193.77C154.56 191.2 157.09 178.77 154.64 178.02C152.87 177.47 148.98 185.28 145.25 184.08C143.26 183.44 141.66 180.33 141.84 178.31C142 176.51 145.82 170.18 147.14 169.01C148.98 167.37 152.44 168.67 154.63 168.74C160.2 168.92 163.68 168.9 169.28 168.34C170.86 168.18 176.2 167.65 177.39 167.92C179.97 168.49 183.07 175.69 184.61 177.96L184.63 177.92ZM155.9 169.73H154.93V170.21H155.9V169.73ZM158.82 169.73H156.4V170.21L158.82 170.7V169.73ZM164.16 171.67L161.74 172.16V172.64C162.41 172.87 164.79 171.96 164.16 171.68V171.67ZM168.04 171.67H166.1V172.15H168.04V171.67ZM180.66 175.55V174.58H180.18V175.55H180.66ZM172.9 201.77V189.87C172.9 188.08 175.79 186.2 175.84 184.56C175.9 182.67 174.19 176.33 171.68 176.54C170.05 178.1 171.5 180.56 171.48 182.59C171.43 188.14 170.16 193.21 171.59 198.95C171.74 199.57 172.27 201.54 172.9 201.77ZM185.7 179.03L182.89 181.1L183.34 181.72L186.15 179.65L185.7 179.03ZM146.2 180.89L145.23 179.92V180.89H146.2ZM242.8 179.92C241.42 179.81 240 180.61 239.4 181.85C240.92 182.04 242.76 181.8 242.8 179.92ZM274.35 180.41H271.44V180.89H274.35V180.41ZM217.56 181.38C216.89 181.16 214.52 182.05 215.14 182.34C215.81 182.56 218.18 181.67 217.56 181.38ZM208.82 181.87H207.85V182.35H208.82V181.87ZM227.26 181.87H226.29V182.35H227.26V181.87ZM278.72 186.23L278.48 183.32C277.41 184.12 277.38 185.76 278.72 186.23ZM199.11 185.74C199.28 185.58 197.65 183.86 197.17 183.8C196.72 184.29 198.61 186.19 199.11 185.74ZM209.79 184.3C210.67 186.37 212.44 185.96 212.7 183.81L209.79 184.3ZM260.76 185.75V184.78H260.28V185.75H260.76ZM266.58 186.72C266.69 186.61 267.12 185.16 267.07 184.78C266.14 185.02 265.98 185.85 266.11 186.72C266.27 186.69 266.52 186.79 266.58 186.72ZM190.37 186.23L189.4 185.26V186.23H190.37ZM202.47 185.57L201.43 185.77L201.9 188.2L202.94 188L202.47 185.57ZM235.52 186.24H233.58V187.2C234.49 187.33 235.26 187.2 235.52 186.24ZM303.48 186.72H302.51V187.69L303.48 186.72ZM190.37 187.69C189.31 186.33 185.47 189.18 184.55 190.11C185.59 190.84 191.43 189.06 190.37 187.69ZM201.05 188.66L200.31 187.7H199.59V188.66H201.04H201.05ZM251.37 188.29C248.71 188.53 250.14 190.57 249.97 191.7C249.55 194.38 248.76 196.05 249.11 199.1C249.38 201.44 251.62 204.98 253.69 202.71C255.76 200.44 254.1 199.76 253.98 198.1C253.83 195.83 254.94 187.96 251.36 188.28L251.37 188.29ZM182.26 188.47L180.37 191.89L181.01 192.25L182.9 188.83L182.26 188.47ZM156.39 195.46L156.88 189.15L155.92 192.8L156.39 195.46ZM268.53 189.15C267.87 189.03 267.35 189.32 267.16 189.96C266.98 190.55 266.25 196.41 266.28 197.09C266.34 198.38 266.93 200.42 268.53 200.32V189.15ZM192.8 189.64H190.86V190.12H192.8V189.64ZM201.05 191.57V190.12H200.57V191.57H201.05ZM233.57 190.6C232.6 190.9 232.28 192.43 232.16 193.31C231.73 196.49 231.55 201.11 234.3 203.21C234.93 203.21 235.6 197.55 235.55 196.67C235.39 194.27 232.76 193.41 233.57 190.59V190.6ZM236 190.61H235.03C234.95 191.54 234.94 192.45 235.76 193.03L236 190.61ZM187.94 191.1H186.97V191.58H187.94V191.1ZM247.65 193.03V192.06H247.17V193.03H247.65ZM195.23 193.52H194.51L193.29 194.97C194.18 195.09 194.72 195 195.23 194.24V193.52ZM255.9 195.46V193.52H255.42V195.46H255.9ZM181.15 194.97L180.91 194L180.18 194.96H181.15V194.97ZM286.49 195.46C287.41 195.62 288.11 194.89 287.94 194.01L286.49 195.46ZM164.77 194.96C164.77 194.63 164.5 194.36 164.17 194.36C163.84 194.36 163.57 194.63 163.57 194.96C163.57 195.29 163.84 195.56 164.17 195.56C164.5 195.56 164.77 195.29 164.77 194.96ZM183.57 197.89C183.65 197.83 184.18 196.1 184.06 195.95L182.12 196.44L182.61 197.89C182.91 197.86 183.47 197.97 183.57 197.89ZM294.26 201.77C295.54 200 285.61 195.9 284.07 195.96C284.48 197.26 287.11 197.08 287.82 197.54C288.35 197.88 290.36 201.82 290.93 202.69L294.26 201.77ZM255.9 197.4V196.43H255.42V197.4H255.9ZM281.63 197.4V196.43H281.15V197.4H281.63ZM200.57 197.41L195.96 197.94L185.82 197.04L184.56 198.13C184.56 199.93 194.77 200.49 196.45 200.32C197.65 200.19 200.22 198.81 200.57 197.41ZM247.65 198.37V196.92H247.17V198.37H247.65ZM279.69 198.37V196.92H279.21V198.37H279.69ZM175.8 200.81L174.36 200.31L174.85 202.74C175.66 202.7 176.15 201.25 175.81 200.81H175.8ZM185.52 202.74L187.45 201.53L185.03 200.32L185.52 202.74ZM248.14 201.77V200.32H247.66V201.77H248.14ZM206.88 200.81H205.91V201.78L206.88 200.81ZM267.56 203.23C268.03 202.72 266.94 200.9 266.11 200.8C265.61 201.71 266.83 204.02 267.56 203.23ZM159.3 201.29H157.85V201.77H159.3V201.29ZM170.59 201.76C170.59 201.43 170.32 201.16 169.99 201.16C169.66 201.16 169.39 201.43 169.39 201.76C169.39 202.09 169.66 202.36 169.99 202.36C170.32 202.36 170.59 202.09 170.59 201.76ZM232.12 203.71C232.24 203.04 230.87 200.87 230.67 201.29C230.7 202.21 231.21 203.4 232.12 203.71ZM253.96 206.63L254.45 204.21C253.33 204.52 253.42 205.75 253.49 206.64H253.97L253.96 206.63ZM290.86 204.21H289.89V204.69H290.86V204.21ZM172.9 207.11C173.83 206.87 173.99 206.04 173.86 205.17C173.63 204.67 172.7 206.48 172.9 207.11ZM229.67 205.63L227.61 206.87L228.06 207.61L230.12 206.37L229.67 205.63ZM233.58 206.62L232.61 205.65V206.62H233.58ZM208.33 207.12L202.51 208.08C204.04 208.02 205.6 208.19 207.13 208.08C208.1 208.02 208.53 208.47 208.33 207.11V207.12ZM167.07 207.6H163.68V208.08H167.07V207.6ZM191.83 208.58H190.86V209.06H191.83V208.58Z" fill="black"/>
<path d="M279.7 226.54C276.55 224.88 274.15 231.72 273.92 234.12C273.44 239.22 276.76 238.68 276.78 243.05C273.93 242.16 271.53 243.88 268.76 244.02C264.93 244.22 256.44 244.1 252.78 243.51C251.52 243.31 250.5 242.17 249.44 242.21C246.67 242.29 242.17 246.52 238.27 244.07C236.61 243.02 235.57 231.47 235.03 228.98C234.16 229.41 233.33 229.59 232.45 229.02C231.4 228.34 231.69 226.09 230.67 225.59C230.43 227.09 228.78 227.98 228.36 229.35C227.87 230.97 227.83 239.25 228.81 240.07C229.71 240.82 233.92 240.43 233.07 244.51L224.35 245.99C224.66 247.9 223.56 249.95 223.39 252.07C222.82 259.35 223.89 266.76 223.9 273.91C223.91 281.06 223.17 287.77 223.38 294.75C223.41 295.84 224.93 299.24 222.9 298.91C221.32 295.82 222.41 293.29 222.43 290.43C222.46 285.56 222.73 280.6 222.71 275.76C222.68 265.99 220.92 256.21 222.87 246.49C222.08 246.57 218.39 245.64 218.02 245.72C217.22 245.88 216.35 246.96 215.37 246.93C214.5 246.9 213.55 245.65 212.45 245.69C211.63 245.72 209.81 247.09 208.46 247.32C203.83 248.12 200.32 245.51 199.59 241.13C198.13 242.44 197.37 244.05 195.57 245.12C194.48 245.76 188.17 247.65 187.3 247.45C186.92 247.36 187.15 246.48 186.27 246.42C185.02 246.34 184 246.92 182.6 246.77C180.61 246.56 178.5 244.74 176.89 244.6C175.28 244.46 172.58 247.16 172.4 242.59C170.5 242.34 169.56 244.07 168.06 244.8C164.67 246.46 162.09 247.63 158.33 246.22C156.76 245.63 148.7 239.59 147.38 238.23C145.55 236.34 144.03 232.78 143.77 230.19C143.33 225.88 144.05 217.1 148.28 214.8C149.89 213.93 157.53 211.02 159.28 210.75C164.46 209.93 167.45 210.68 171.43 213.93C171.86 212.48 173 210.55 174.53 210.09C177.37 210.57 177 219.24 176.73 221.4C176.37 224.32 174.85 226.19 171.96 224.34C168.35 222.03 170.53 217.3 165.26 216.47C163.33 216.17 158.64 216.77 156.77 217.45C149.15 220.2 151.49 236.8 158.92 239.32C163.79 240.97 170.98 238.24 174 234.21C177.67 229.3 176.25 223.55 183.07 219.98C187.79 217.51 187.4 219.12 191.19 219.15C192.01 219.15 192.54 218.47 193.42 218.45C194.41 218.42 199.57 219.1 200.78 219.31C208.9 220.72 203.24 234.83 208.15 239.14C214.71 237.37 212.77 229.99 209.99 225.64C208.85 223.86 206.04 223.54 207.12 221.23C208.05 219.24 214.38 218.48 216.24 218.9C218.27 219.36 218.54 221.68 219.72 221.71C221.27 221.75 222.77 219.65 223.74 219.36C226.64 218.5 229.42 222.8 230.36 222.64C231.74 222.27 232.42 219.41 233.09 219.02C233.97 218.5 235.25 219.06 235.92 218.69C237.65 217.73 237.61 211.24 243.57 215.87L243.3 221.21C244.7 220.17 247.63 221.34 248.82 221.09C249.5 220.95 249.73 219.86 251.29 219.71C253.04 219.54 254.38 220.65 255.59 220.59C257.24 220.51 259.21 219.15 261.5 219.23C263.66 219.3 265.75 221.25 267.25 221.09C268.51 220.95 271.2 219.43 270.99 217.83L272.41 217.81L273.63 223.15C275.45 220.43 278.31 219.05 281.15 217.57C279.31 217.43 278.86 210.88 279.21 210.53C281.82 210.96 283.75 210.05 286.19 209.52C286.46 210.09 287.95 212.53 287.95 212.71V219.75C290.26 218.57 292.38 219.94 294.5 219.79C295.79 219.7 297.6 218.07 298.41 219.26C299.03 220.16 297.06 224.11 297.14 225.82C297.24 227.74 298.74 229.78 298.39 231.89C299.3 232.12 299.26 231.24 299.52 230.62C299.95 229.59 301.69 225.78 301.77 225.17C302.27 221.54 297.42 218.83 303.37 217.94C306.77 217.43 311.96 217.82 311.23 222.39C310.73 225.53 306.51 225.56 305.39 228.21C304.27 230.86 304.79 234.06 304.24 236.77C303.86 238.61 302.4 240.35 301.8 242.09C300.03 247.19 301.62 252.64 294.97 253.7C290 254.49 290.71 252.32 289.9 248.39C292.27 248.54 293.21 247.69 293.81 245.26C292.44 238.53 289.98 232.12 287.95 225.57C287.28 225.85 287.14 228.05 287.05 228.78C286.7 231.36 286.52 234.12 286.51 236.73L287.96 235.76C286.97 238.24 292.92 240.17 291.15 242.6C290.9 242.94 283.66 243.97 282.81 243.97C280.24 243.96 277.77 243.13 277.3 240.42C277.41 239.88 279.71 238.95 279.71 238.44V226.54H279.7ZM163.67 214.4H162.7V214.88H163.67V214.4ZM239.88 221.19V219.74H239.4V221.19H239.88ZM196.68 220.23H194.74V222.16H195.7L196.68 220.23ZM309.18 223.49C310.1 222.49 310.19 220.05 308.34 220.22C308.51 221.71 308.15 222.87 307.37 224.1C307.64 224.32 308.9 223.8 309.18 223.49ZM234.55 220.71H233.58V221.19H234.55V220.71ZM263.19 221.2C263.02 222.07 263.81 224.33 264.88 224.11C266.88 223.7 264.09 221.13 263.19 221.2ZM288.43 221.2H287.46V221.68H288.43V221.2ZM255.91 222.65L255.17 221.69H254.45V222.65H255.9H255.91ZM268.53 222.17C267.92 221.85 266.84 222.95 267.07 223.13C267.68 223.45 268.76 222.35 268.53 222.17ZM173.38 222.66H172.41V223.14H173.38V222.66ZM174.83 223.62V222.65H174.35V223.62H174.83ZM261.43 222.61L260.25 224.57L260.99 225.02L262.17 223.06L261.43 222.61ZM254.45 224.6C253.53 224.44 252.83 225.17 253 226.05L254.45 224.6ZM258.82 225.57C257.48 225.2 255.49 224.33 255.43 226.53L258.82 225.57ZM289.88 226.05V225.08H289.4V226.05H289.88ZM184.11 227.55C183.12 231.26 181.91 237.11 184.53 240.39C186.89 243.34 192.52 239.34 193.18 236.39C194.16 232.05 190.64 224.82 185.52 226.55L186.01 227.51L184.11 227.56V227.55ZM245.23 226.54C240.42 225.66 242.73 235.45 243.3 238.42C243.41 238.99 243.5 239.3 244.01 239.64L246.67 237.95C244.44 236.39 245.81 234.78 245.61 233.2C245.35 231.06 243.27 229.67 245.22 226.54H245.23ZM234.67 227.5C234.67 227.17 234.4 226.9 234.07 226.9C233.74 226.9 233.47 227.17 233.47 227.5C233.47 227.83 233.74 228.1 234.07 228.1C234.4 228.1 234.67 227.83 234.67 227.5ZM265.62 227.03C264.72 227.33 262.72 227.68 262.22 228.48C263.46 228.57 265.07 228.32 265.62 227.03ZM219.99 227.51C219.99 231.06 219.09 235.48 219.48 238.94C219.74 241.27 221.21 241.21 221.47 238.94C221.7 236.95 221.15 232.44 220.91 230.23C220.85 229.66 220.69 227.57 220 227.5L219.99 227.51ZM246.68 231.39C246.87 230.49 247.2 228.04 246.21 227.51C245.83 228.62 245.24 230.75 246.68 231.39ZM151.05 231.39L150.33 228C148.5 229.53 150.47 229.34 150.57 229.79C150.72 230.45 150.17 231.51 151.05 231.4V231.39ZM266.59 228.97C265.22 228.82 264.34 229.92 262.97 229.95C261.13 229.99 258.9 228.81 256.77 229.06C254.64 229.31 251.11 230.76 253.15 233.2C254.34 234.62 256.21 234.82 257.23 235.43C257.63 235.67 257.71 236.69 258.81 237.04C260.01 237.42 263.25 236.32 264.84 236.66L266.59 228.97ZM272.54 229.44C272.54 229.11 272.27 228.84 271.94 228.84C271.61 228.84 271.34 229.11 271.34 229.44C271.34 229.77 271.61 230.04 271.94 230.04C272.27 230.04 272.54 229.77 272.54 229.44ZM291.83 232.36V230.91H291.35V232.36H291.83ZM194.74 233.33V231.88H194.26V233.33H194.74ZM147.17 232.85H146.2L146.69 234.79H147.16V232.85H147.17ZM204.45 235.27V232.85H203.97V235.27H204.45ZM293.21 233.42L291.84 232.85L293.05 236.25L293.21 233.42ZM271.44 235.27V234.3H270.96V235.27H271.44ZM253.97 235.76L253 234.79V235.76H253.97ZM148.62 235.76H147.65L148.38 236.73L148.62 235.76ZM284.07 238.68C285.3 238.31 285.06 236.83 285.03 235.77H284.56L284.07 238.68ZM281.63 238.67V237.7H281.15V238.67H281.63ZM241.83 239.64V238.19H241.35V239.64H241.83ZM258.33 239.16V238.19L257.36 238.92L258.33 239.16ZM248.62 241.1V240.38L247.66 239.64V241.09H248.62V241.1ZM274.84 241.1C274.84 239.32 273.4 239.32 273.39 241.1H274.84ZM222.89 241.1V240.13H222.41V241.1H222.89ZM258.82 240.62H257.85V241.1H258.82V240.62ZM290.01 241.09C290.01 240.76 289.74 240.49 289.41 240.49C289.08 240.49 288.81 240.76 288.81 241.09C288.81 241.42 289.08 241.69 289.41 241.69C289.74 241.69 290.01 241.42 290.01 241.09ZM160.27 241.11H159.3V241.59H160.27V241.11ZM219.62 242.06C219.62 241.73 219.35 241.46 219.02 241.46C218.69 241.46 218.42 241.73 218.42 242.06C218.42 242.39 218.69 242.66 219.02 242.66C219.35 242.66 219.62 242.39 219.62 242.06ZM229.7 243.53C230.59 243.64 231.12 243.56 231.63 242.8C231.01 242.21 230.62 241.4 229.7 241.59V243.53ZM242.31 243.04V241.59L240.86 242.81L242.31 243.05V243.04ZM211.73 244.01V242.56H211.25V244.01H211.73ZM193.29 244.5C193.57 244.78 194.73 244.1 194.73 243.77C194.73 242.43 192.55 243.77 193.29 244.5ZM223.38 244.02L221.93 243.53V244.5H223.38V244.03V244.02ZM187.47 245.47C187.65 245.71 188.75 244.62 188.43 244.01C188.25 243.77 187.15 244.86 187.47 245.47ZM216.58 244.02H215.13V245.47L216.58 244.98V244.02ZM298.62 249.84V248.87H298.14V249.84H298.62Z" fill="black"/>
<path d="M239.4 12.88C233.85 14.74 228.3 16.11 222.41 15.31C221.96 20.9 221.2 26.43 221.44 32.06C221.81 40.76 221.97 49.57 222.41 58.28C222.89 67.84 224.2 77.29 223.88 86.95C223.48 99.27 223.37 109.03 223.86 121.4C223.93 123.26 224.9 124.91 223.86 126.99C224.99 127.23 224.64 126.86 224.95 126.37C227.42 122.47 235.39 110.01 239.75 109.1C243.64 108.29 243 118 242.74 120.39C241.94 128.01 233.04 140.9 228.44 147.38C227.11 149.25 225.79 149.42 225.09 152.67C225.04 152.89 224.76 156.13 224.79 156.31C224.87 156.94 227.96 157.25 227.28 159.02C229.65 159.25 231.73 157.3 233.99 158.64C234.99 163 232.85 164.84 229.88 167.3C226.58 166.15 223.26 167.51 220.64 164.71C219.45 163.44 219.39 161.5 218.05 160.51C216.3 166.1 208.24 171.76 202.36 170.59C200.8 170.28 200.37 168.67 199.94 167.21C197.3 158.39 202.11 149.53 203.97 141.09L198.15 143.03C202.74 149.11 195.27 153.08 194.01 158.06C193.65 159.5 194.13 163.13 193.33 163.69C187.52 164.22 185.23 163.32 187.59 157.47C189.95 151.62 194.46 147.51 188.2 142.06C186.82 144.87 189.94 146.78 189.79 149.46C189.64 152.14 185.25 158.67 182.77 159.44C179.07 160.58 175.38 157.86 175.39 154.01C175.39 152.59 177.53 143.44 178.15 142.19C179.02 140.44 183.07 138.65 183.14 138.34C183.63 136.33 182.1 135.88 181.55 134.64C179.55 130.14 182.55 124.36 185.78 121.17C189.21 117.78 192.56 117.15 194.66 122.03C194.05 125.32 194.73 129.38 194.16 132.48C193.66 135.22 188.59 138.8 195.21 139.59C196.23 132.32 203.4 136.63 206.86 133.04C208.57 131.26 212.31 120.82 214.52 120.27C215.38 120.05 217.49 121.23 218.08 121.89C220.33 124.4 219.38 127.47 218.01 130.1C217.19 131.68 215.87 131.68 216.13 133.31C218.65 132.69 220.8 131.17 223.41 131.85C223.37 131.1 222.98 130.43 222.92 129.67C221.5 110.29 223.07 91.5 222.41 72.35C221.88 56.93 220.22 40.86 220.47 25.25C220.52 22.04 220.75 22.61 220.11 19.32C219.92 18.35 220.82 17.01 219.96 15.84C217.6 16.25 216.01 16.25 213.69 15.56C213.16 15.4 207.44 13.3 208.35 12.41C210.69 13.12 212.41 14.64 214.87 14.86C216.29 14.99 221.36 14.7 222.6 14.29C223.17 14.1 223.39 13.45 223.4 12.9C224.61 15.04 228.01 14.57 230.37 14.3C233.42 13.95 235.83 12.49 238.65 11.46L239.41 12.9L239.4 12.88ZM241.34 113.4C241.41 112.22 240.87 110.38 239.4 110.49C240.56 111.24 239.76 113.68 241.34 113.4ZM190.86 123.6C191.37 123.42 193.49 121.2 192.06 120.69L190.86 123.6ZM232.13 122.14C230.94 126.87 227.99 131.71 226.56 136.23C226.45 136.57 225.44 139.16 226.54 139.12C228.14 139.06 229.48 133.83 229.98 132.86C231.19 130.49 234.81 125.55 234.01 122.94C233.73 122.02 232.89 122.06 232.13 122.14ZM225.32 131.36L227.75 124.57C226.23 125.8 225.57 128.16 225.17 130C225.06 130.48 224.4 131.48 225.32 131.37V131.36ZM190.85 128.45V127.48H190.37V128.45H190.85ZM188.43 130.39V128.94H187.95V130.39H188.43ZM234.06 129.43H233.1L232.61 131.37L234.06 130.15V129.43ZM187.94 131.85V130.88H187.46V131.85H187.94ZM223.38 135.25L222.64 134.29H221.92V135.25H223.37H223.38ZM211.73 139.62C212.18 142.97 209.65 146.67 208.68 149.92C207.39 154.22 205.67 164.39 212.47 157.6C216.01 154.07 219.7 146.54 221.46 141.83C221.64 141.34 223.22 136.53 222.65 136.71C219.19 138.34 215.51 141.53 211.72 139.62H211.73ZM197.16 139.13V138.16H196.68V139.13H197.16ZM210.76 140.11H209.79V142.05H210.26L210.75 140.11H210.76ZM225.32 143.99C225.39 143.92 225.88 142.22 225.81 142.05C225.11 141.91 224.97 143.25 224.85 143.99C225.01 143.97 225.26 144.06 225.33 143.99H225.32ZM208.81 146.41C208.97 146.2 209.42 144.25 209.3 143.99H208.82C208.69 144.39 208.15 147.24 208.81 146.41ZM180.31 147.51C180.03 148.16 180.01 152.68 180.25 153.38C181.04 155.68 184.9 154.07 185.42 152.4C186.02 150.43 185.42 143.76 182.41 144.45C182.3 145.61 180.39 147.34 180.31 147.51ZM221.92 145.44V144.47H221.44V145.44H221.92ZM221.11 145.88L219.71 148.7L220.35 149.02L221.75 146.2L221.11 145.88ZM203.96 147.87V146.9H203.48V147.87H203.96ZM187.47 151.27C189.17 150.54 188.26 148.63 187.94 147.39L187.47 151.27ZM203.48 149.33V148.36H203V149.33H203.48ZM224.25 148.73L223.2 152.03L223.86 152.24L224.91 148.94L224.25 148.73ZM219.67 149.28L218.03 152.23L218.79 152.65L220.43 149.7L219.67 149.28ZM202.99 150.79V149.82H202.51V150.79H202.99ZM205.9 158.55V157.1H205.42V158.55H205.9ZM201.05 161.47V159.05H200.57V161.47H201.05ZM232.6 159.53H230.18V160.5H232.6V159.53ZM188.43 161.47V160.02H187.95V161.47H188.43ZM208.34 162.93H209.06C209.63 162.34 210.46 161.92 210.28 160.99L208.38 161.52L208.34 162.93ZM221.44 162.92V161.47H220.96V162.92H221.44ZM202.02 165.35L201.53 163.9H201.06V165.35H202.03H202.02ZM214.16 163.9L212.06 164.38L211.73 165.83C212.17 166.33 214.06 164.46 214.15 163.89L214.16 163.9ZM209.79 167.78L208.82 166.81V167.78H209.79Z" fill="black"/>
<path d="M300.07 148.34L298.2 148.91C297.99 156.43 293.18 162.59 296.74 170.15C300.34 171.2 300.54 165.95 304.11 166.38C308.03 169.92 305.47 176.57 300.21 176.88C291.62 177.4 288.91 170.93 289.89 163.41C287.1 163.83 285.5 166.75 282.49 166.23C279.06 165.64 278.17 163.69 276.54 160.99C271.52 165.59 267.92 161.99 264.89 157.59C262.86 160.12 260.74 162.61 259.72 165.76C257.27 166.11 254.29 166.24 253.98 163.13C253.77 160.98 256.36 158.73 253.49 158.8C252.17 161.03 249.5 162.26 246.92 162.44C244.34 162.62 245.69 161.85 245.11 161.15C244.53 160.45 242.74 159.63 242.09 158.64C241.05 159.36 239.23 161.04 237.91 160.75C236.33 160.41 233.66 154.62 233.57 152.96C233.36 149.01 237.69 142.39 241.73 141.65C242.88 141.44 243.76 141.98 244.79 141.84C245.94 141.68 247.73 140.7 248.5 140.69C249.48 140.67 252.48 144.42 252.56 145.23C252.71 146.9 248.96 151.34 249.63 153.7C250.44 153.32 251.25 152.92 252.01 152.45C253.75 151.38 257.89 147.13 259.06 145.42C261.26 142.19 262.09 136.35 263.66 132.66C272.27 129 267.32 141.44 266.13 145.44C268.14 146.29 268.69 142.09 269.76 142.14C270 142.15 270.48 142.94 271.2 142.98C271.71 143.01 272.72 142.34 272.92 142.53C273.73 143.24 272.64 153.26 272.92 155.41C272.99 155.91 272.8 156.46 273.64 156.12C279.12 153.95 281.52 144.12 287.24 143.94C290.18 143.85 291.54 146.11 293.53 142.99C294.91 140.82 294.74 138.42 295.51 136.23C296.16 134.39 297.27 132.59 297.82 130.77C298.75 127.73 300.66 116.58 302.75 115.31C303.84 114.64 305.54 114.52 306.18 115.82C307.75 119.03 303.33 128.59 302.29 132.32C300.91 137.27 299.01 143.32 300.1 148.33L300.07 148.34ZM299.11 132.33V131.36H298.63V132.33H299.11ZM298.14 135.25C298.28 135.1 298.75 133.09 298.63 132.83C297.98 132.56 297.48 134.85 297.67 135.25C297.83 135.23 298.08 135.32 298.14 135.25ZM267.07 137.19V136.22H266.59V137.19H267.07ZM250.57 144.96L248.15 142.05C247.94 142.75 249.91 145.57 250.57 144.96ZM247.65 142.54H246.68V143.02H247.65V142.54ZM241.83 143.02C241.22 142.7 240.14 143.8 240.37 143.98C240.98 144.3 242.06 143.2 241.83 143.02ZM286 146.42V145.45L285.03 146.18L286 146.42ZM249.59 148.36C249.66 148.29 250.15 146.59 250.08 146.42C249.38 146.28 249.24 147.62 249.12 148.36C249.28 148.34 249.53 148.43 249.6 148.36H249.59ZM296.16 146.76L295.54 150.94L296.67 151.11L297.29 146.93L296.16 146.76ZM291.83 148.37H290.86V149.82H291.33L291.82 148.37H291.83ZM243.74 152.21L244.25 148.85L241.87 151.08L242.07 152.25L243.73 152.21H243.74ZM239.79 149.65L239.1 152.01L239.89 152.24L240.58 149.88L239.79 149.65ZM285.52 158.07C288.98 158.05 292.12 153.18 289.64 150.31L285.52 158.07ZM292.31 152.73L292.79 151.51L291.84 150.79V152.73H292.31ZM274.84 157.11C274.23 156.79 273.15 157.89 273.38 158.07C273.99 158.39 275.07 157.29 274.84 157.11ZM250.08 160.02L248.86 159.54L248.14 160.49H250.08V160.02ZM272.41 160.02C271.49 159.82 271.1 160.64 270.48 161.23L271.2 161.95L272.41 160.02ZM278.73 161.47C278.91 161.71 280.01 160.62 279.69 160.01C279.51 159.77 278.41 160.86 278.73 161.47ZM258.82 163.9C258.05 163.85 257.08 164.13 256.38 163.66C255.9 163.34 256.2 162.28 255.43 162.44C255.36 163.21 255.28 164.01 256.23 164.3C256.63 164.42 258.88 164.79 258.82 163.9ZM291.83 168.75V167.78H291.35V168.75H291.83ZM303.97 167.79H302.52V168.76L303.97 168.27V167.8V167.79ZM296.69 174.58C296.87 174.82 297.97 173.73 297.65 173.12C297.47 172.88 296.37 173.97 296.69 174.58Z" fill="black"/>
<path d="M162.22 126.99C165.56 124.74 171.55 123.8 174.56 127.03C176.93 129.57 177.25 134.47 177.3 137.93C177.4 145.23 172.77 150.77 166.21 153.57C161.2 155.71 157.73 155.21 153.48 151.76C151.54 156.12 154.41 158.53 155.64 161.97C158.47 169.82 146.39 166.82 145.45 164.88C144.93 163.81 144.64 158.77 144.79 157.39C145.52 150.56 151.12 140.03 153.14 133.22C154.12 129.91 153.92 129.73 155.4 126.62C156.65 123.99 156.28 119.25 161.27 119.93C163.11 122.25 161.19 124.59 162.22 127V126.99ZM174.35 129.91V129.19L172.9 127.97V129.91H174.35ZM157.36 131.85V130.88H156.88V131.85H157.36ZM168.52 132.34L161.98 135.75L159.75 143.72C161.98 144.53 163.31 145.32 162.22 147.88C166.92 148.48 171.49 137.87 170.5 134.58C169.24 133.97 168.33 134.15 168.52 132.34ZM156.87 134.28V133.31H156.39V134.28H156.87ZM153 140.59C154.1 140.3 154.04 139.07 153.96 138.16H153.48L152.99 140.59H153ZM156.87 143.02C157.01 142.87 157.48 140.86 157.36 140.6C156.71 140.33 156.21 142.62 156.4 143.02C156.56 143 156.81 143.09 156.87 143.02ZM169.98 144.96L170.95 141.08L169.05 144.28L169.98 144.96ZM151.05 146.41C151.19 146.26 151.66 144.25 151.54 143.99C150.89 143.72 150.39 146.01 150.58 146.41C150.74 146.39 150.99 146.48 151.05 146.41ZM155.9 149.33V148.36H155.42V149.33H155.9ZM170.47 148.85H169.5V150.3L170.46 149.56V148.84L170.47 148.85ZM156.72 150.94C156.53 150.72 155.01 149.73 154.95 149.81C154.81 151.41 156.13 151.87 157.13 152.72C157.79 152.39 157.03 151.28 156.72 150.94ZM152.5 151.27V150.3H152.02V151.27H152.5ZM150.56 152.73V151.28H150.08V152.73H150.56ZM151.53 162.92V161.47H151.05V162.92H151.53Z" fill="black"/>
<path d="M274.76 165.96C277.74 165.81 281.44 166.92 282.73 169.85C284.55 173.98 279.46 173.6 277.62 174.2C273.84 175.44 268.51 179.54 266.36 173.58C264.82 169.32 271.18 166.13 274.76 165.95V165.96ZM277.75 168.76H276.78V169.24H277.75V168.76Z" fill="black"/>
<path d="M140.29 68.6697C138.4 68.3397 139.2 69.8698 138.6 70.2098C137.47 70.8498 133.55 70.8797 132.27 70.8397C130.3 70.7797 130.52 71.4697 128.8 69.4197L129.17 64.6497L130.93 63.9097L131.18 61.4797C133.56 61.5097 138.85 60.1397 140.31 62.2297C142.13 64.8497 140.45 65.9897 140.29 68.6697ZM137.95 62.9197C136.67 61.5997 132.61 63.8998 131.37 64.8198L131.64 69.1797L133.08 69.6997C131.84 66.1597 135.53 64.4697 135.05 67.5097C134.99 67.8597 133.46 67.5097 134.06 68.7197L136.96 69.2098C136.67 68.0398 138.78 66.4597 138.81 66.0597C138.84 65.5697 137.94 64.8997 137.75 64.3597C137.58 63.8797 138.06 63.0297 137.95 62.9197ZM139.88 64.8397V63.8697H139.4V64.8397H139.88Z" fill="black"/>
<path d="M310.42 62.7399C312.05 63.7999 314.07 62.6299 314.67 63.0899C314.88 63.2499 316.62 67.7199 316.62 67.9799C316.67 71.2099 314.64 70.2199 313.07 70.7899C311.93 71.1999 310.53 73.1899 309.55 71.1299C308.86 69.6699 310.19 68.8299 307.36 69.2099C307.62 67.5199 307.27 67.2899 305.91 66.5399L306.9 65.4999L306.41 62.4499L309.1 61.4299C310.02 61.3299 310.05 62.4999 310.43 62.7499L310.42 62.7399ZM314.16 65.3299C312.47 64.8099 313.55 66.8699 313.17 67.2499L310.77 67.7599L310.29 66.2999L310.77 70.1799L314.93 68.2499L314.16 65.3199V65.3299Z" fill="black"/>
<path d="M236.98 10.9398C238.44 4.26979 229.17 1.98979 224.13 1.77979C221.01 1.64979 208.51 5.36979 206.94 7.84979C205.85 9.56979 206.14 12.3798 203.97 13.3698C204.23 11.2598 205.56 6.88979 207.19 5.66979C209.49 3.94979 213.71 3.74979 216.2 2.05979C221.25 -0.300211 232.86 0.479789 236.47 4.87979C237.63 6.28979 239.92 10.6098 236.97 10.9298L236.98 10.9398Z" fill="black"/>
<path d="M220.47 166.33L221.97 166.64C221.69 170.16 221.63 173.37 221.93 177.01C221.48 177.22 220.48 176.58 220.48 176.28V166.33H220.47Z" fill="black"/>
<path d="M48.61 262.96C49.21 263.47 51.03 266.89 50.96 267.91C50.64 272.3 46.61 279.66 45.46 284.32C44.47 288.34 44.38 292.68 43.44 296.86C39.17 315.89 32.28 334.54 29.69 354C27.22 372.56 23.4 409.39 34.63 424.8C37.42 428.63 41.98 431.36 45.24 434.95C53.22 443.74 58.18 445.47 69.62 448.07C76 449.52 84.93 452.09 91.15 452.75C95.64 453.23 100.65 452.45 105.17 452.81C110.01 453.2 114.85 454.9 119.75 455.23C134.37 456.21 151.02 455.19 165.88 455.21C172.97 455.22 180.05 455.63 187.24 455.25C203.9 454.36 221.18 451.17 237.73 451.33C257.9 451.52 278.29 452.1 298.37 449.38C319.39 451.63 339.69 451.19 360.38 446.84C378.47 443.04 382.76 438.42 391.12 422.72C398.33 409.17 404.11 390.81 404.97 375.39C406.22 352.87 406.65 328.37 404.38 306.01C403.68 299.15 401.26 294.79 400.14 288.89C399.23 284.09 399.81 278.75 398.63 273.89L399.6 274.13L399.62 272.91L398.62 272.43L404.21 266.36C405.08 266.76 406.54 276.14 406.82 277.83C409.24 292 410.18 306.84 412.85 320.84C414.32 328.58 417.45 336.31 418.79 344.03C421.06 357.07 422.14 369.64 423.07 382.71C424.23 399.12 430.03 413.11 430.71 429.26C431.29 443.12 429.67 463.3 423.3 475.8C421.19 479.95 418.47 482.05 414.87 484.36C411.27 486.67 411.27 492.59 404.1 495.92C399.22 498.19 386 502.63 380.77 503.66C375.54 504.69 370.09 504.28 364.93 504.81C337.06 507.7 312.65 507.32 284.78 506.22C263.46 505.38 243.2 508.27 222.18 509.15C206.91 509.79 192.4 507.35 177.47 507.18C170.47 507.1 162.31 507.85 155.17 508.17C133.97 509.13 110.87 510.52 89.61 509.15C82.22 508.67 76.33 505.89 69.69 504.8C65.6 504.13 61.13 504.61 57.11 504.27C45.66 503.32 33.91 497.76 24.01 492.22C16.1 487.8 12.79 486.49 8.54997 478.07C-0.490032 460.09 1.16997 433.8 5.23997 414.53C13.6 374.95 26.89 334.36 38.89 295.72C40.47 290.64 43.16 285.31 44.38 280.34C45.49 275.84 45.67 270.81 46.8 266.26C46.93 265.72 47.6 262.12 48.59 262.96H48.61ZM53.96 489.22L52.99 488.25V489.22H53.96Z" fill="white"/>
<path d="M363.07 288.79L363.69 288.9C364.6 289.57 364.02 292.95 364.17 294.27C366.22 312.52 367.19 332.69 367.06 351.11C367.02 356.28 367.76 360.59 365.77 365.8C361.72 376.38 356.33 381.7 345.85 385.69C330.36 391.59 316.18 392.55 299.87 392.58C273.61 392.63 249.27 396.09 222.68 395.01C211.1 394.54 199.99 397.04 188.66 396.46C175.05 395.77 161.42 392.74 147.9 391.63C127 389.91 107.85 392.97 87.4503 386.54C74.3703 382.42 64.9103 366.44 65.6303 353.02C66.0103 345.9 68.2603 341.31 69.7703 334.82C71.7903 326.12 73.8203 317.67 76.0703 309.08C76.8003 306.3 79.9203 289.24 82.3703 289.22C89.5003 295.04 100.2 296.13 109.13 297.36C123.56 299.35 136.93 299.07 151.3 299.85C160.53 300.36 168.34 301.79 177.94 301.72C191.89 301.63 205.8 301.5 219.76 300.82C240.47 299.81 257.79 299.57 278.5 300.81C296.12 301.87 326.12 295.52 344.38 292.43C350.63 291.37 356.78 289.62 363.08 288.78L363.07 288.79Z" fill="white"/>
<path d="M56.8699 273.64C58.6299 277.49 63.0899 279.27 66.6299 281.22C64.3599 289.1 62.1399 297 59.6599 304.82C56.2299 315.65 53.1099 323.36 51.5999 335.12C50.1799 346.22 47.9099 362.56 48.6099 373.44C49.8899 393.4 68.0199 412.55 88.1899 413.48C94.1999 413.76 101.12 412.58 107.07 412.56C122.33 412.5 138.94 415.82 154.21 416.88C166.02 417.7 177.87 416.18 189.62 415.89C217.55 415.21 245.24 414.74 273.16 414.92C291.73 415.04 312.29 412.84 330.91 411.06C343.76 409.83 355.1 410.15 365.38 400.87C371.93 394.96 380.49 371.88 383.22 362.88C389.32 342.77 386.12 315.98 384.54 295.24C384.2 290.73 385.32 286 383.55 281.69L393.04 276.06C394 275.78 394.09 278.1 394.19 278.79C395.14 285.33 395.02 291.86 395.71 298.15C397 309.88 399.18 318.98 398.64 331.19C397.71 351.98 395.79 376.8 389.29 396.61C384.05 412.58 365.21 420.34 350.45 424.77C319.29 434.12 287.99 435.23 255.66 433.86C223.06 432.47 190.39 433.59 157.57 434.33C129.24 434.97 81.1799 437.12 56.5999 421.74C42.3999 412.86 34.2999 386.76 35.5599 370.56C40.9199 342.78 44.3799 314.4 51.5399 287.01C52.0699 284.97 54.7799 275.67 55.4999 274.46C55.8699 273.84 55.9899 273.45 56.8399 273.63L56.8699 273.64ZM150.08 427.56V426.59H149.6V427.56H150.08Z" fill="white"/>
<path d="M77.0902 381.6C83.7602 387.37 90.1502 389.4 98.9302 391.07C113.61 393.86 131.58 392 146.92 393.09C163.08 394.24 180.68 398.71 196.92 397.94C200.99 397.75 205.48 396.68 209.53 396.47C219.53 395.95 229.35 397.69 239.18 397.48C259.61 397.05 279.82 394.23 300.35 394.04C317.04 393.88 339.44 392.18 354.12 383.29C361.56 378.78 367.95 367.49 368.55 358.88C370.04 337.37 366.32 315.72 365.6 294.3C365.54 292.38 365.61 290.43 365.68 288.52L381.88 282.4C383.7 282.41 382.97 293.54 383.1 295.25C383.6 301.85 384.74 307.88 385.04 314.67C385.75 330.27 386 349.74 381.16 364.7C378.14 374.04 370.64 395.34 363.15 401.06C352.65 409.08 344.24 408.36 331.89 409.61C308.32 411.99 283.19 414.25 259.54 414.01C253.13 413.94 246.02 412.95 239.64 412.98C232.04 413.01 223.98 413.77 216.38 413.96C199.35 414.38 182.4 415.48 165.36 415.42C148.32 415.36 130.51 412.33 112.97 411.53C95.0202 410.71 84.6802 416.03 68.3802 404.66C44.4202 387.94 49.8402 363.99 52.9902 338.95C53.2002 337.27 52.8402 335.43 53.0602 333.68C55.3002 315.95 62.9802 300.51 67.3102 283.35L69.0102 283.85L69.7202 282.41C73.4502 284.58 77.9002 286.02 81.0602 288.94C76.9102 294.67 76.8102 302 75.0902 308.62C72.1102 320.13 68.2902 332.39 65.7602 343.95C62.5402 358.64 65.8002 371.83 77.1002 381.61L77.0902 381.6Z" fill="white"/>
<path d="M189.4 16.2897C188.92 17.2197 187.69 17.7897 186.81 18.3097C177.77 23.7097 168.29 27.8797 159.34 33.5597C140.05 45.7997 127.95 58.7097 114.17 76.7497C90.0997 108.26 83.3797 146.19 75.9397 184.18C70.2097 213.45 65.1297 242.82 58.8297 271.95C58.6797 272.62 59.2497 273.36 58.0997 273.14L48.3597 260.5C45.1197 260.31 44.3097 256.35 42.7197 254.04C39.3597 249.18 35.5397 246.49 35.2197 240.28C34.9697 235.39 35.6197 225.88 36.6097 221.06C37.2897 217.8 39.4497 214.52 39.8297 211.17C40.6597 204.02 39.9197 195.64 40.3697 188.41C40.7797 181.94 42.3797 174.19 43.4097 167.66C47.3297 142.85 49.6697 112.9 61.4697 90.5597C67.0497 79.9997 74.4297 66.2897 83.0797 58.2697C105.43 37.5597 132.18 27.5697 161.25 19.9197C167.78 18.1997 172.82 15.9797 179.92 15.7697C183.12 15.6797 186.2 16.5597 189.41 16.2797L189.4 16.2897Z" fill="white"/>
<path d="M251.37 188.29C254.94 187.96 253.83 195.83 253.99 198.11C254.1 199.77 255.82 200.4 253.7 202.72C251.58 205.04 249.39 201.45 249.12 199.11C248.77 196.06 249.56 194.39 249.98 191.71C250.16 190.58 248.72 188.54 251.38 188.3L251.37 188.29Z" fill="white"/>
<path d="M172.9 201.77C172.26 201.55 171.74 199.58 171.59 198.95C170.16 193.21 171.43 188.14 171.48 182.59C171.5 180.56 170.05 178.1 171.68 176.54C174.19 176.33 175.9 182.66 175.84 184.56C175.79 186.2 172.9 188.08 172.9 189.87V201.77Z" fill="white"/>
<path d="M200.571 197.41C200.231 198.81 197.651 200.19 196.451 200.32C194.761 200.5 184.561 199.93 184.561 198.13L185.821 197.04L195.961 197.94L200.571 197.41Z" fill="white"/>
<path d="M233.57 190.6C232.76 193.42 235.39 194.28 235.55 196.68C235.61 197.55 234.94 203.23 234.3 203.22C231.55 201.12 231.73 196.5 232.16 193.32C232.28 192.43 232.6 190.9 233.57 190.61V190.6Z" fill="white"/>
<path d="M268.53 189.15V200.32C266.93 200.42 266.34 198.39 266.28 197.09C266.25 196.41 266.98 190.55 267.16 189.96C267.35 189.32 267.88 189.03 268.53 189.15Z" fill="white"/>
<path d="M294.26 201.77L290.93 202.69C290.36 201.82 288.35 197.88 287.82 197.54C287.11 197.08 284.48 197.26 284.07 195.96C285.61 195.9 295.54 200.01 294.26 201.77Z" fill="white"/>
<path d="M190.37 187.69C191.43 189.06 185.59 190.84 184.55 190.11C185.48 189.18 189.31 186.33 190.37 187.69Z" fill="white"/>
<path d="M156.39 195.46L155.91 192.8L156.87 189.15L156.39 195.46Z" fill="white"/>
<path d="M242.8 179.92C242.77 181.81 240.92 182.04 239.4 181.85C239.99 180.6 241.41 179.8 242.8 179.92Z" fill="white"/>
<path d="M185.52 202.74L185.04 200.32L187.45 201.53L185.52 202.74Z" fill="white"/>
<path d="M208.33 207.12C208.53 208.47 208.1 208.03 207.13 208.09C205.6 208.19 204.04 208.02 202.51 208.09L208.33 207.13V207.12Z" fill="white"/>
<path d="M209.79 184.3L212.7 183.81C212.44 185.96 210.67 186.37 209.79 184.3Z" fill="white"/>
<path d="M267.56 203.23C266.83 204.02 265.61 201.71 266.11 200.8C266.94 200.89 268.03 202.71 267.56 203.23Z" fill="white"/>
<path d="M175.801 200.81C176.141 201.25 175.651 202.7 174.841 202.74L174.351 200.31L175.791 200.81H175.801Z" fill="white"/>
<path d="M182.259 188.495L180.365 191.916L181.013 192.274L182.906 188.854L182.259 188.495Z" fill="white"/>
<path d="M278.72 186.23C277.39 185.75 277.41 184.12 278.48 183.32L278.72 186.23Z" fill="white"/>
<path d="M185.703 179.047L182.89 181.112L183.345 181.733L186.158 179.667L185.703 179.047Z" fill="white"/>
<path d="M183.57 197.89C183.47 197.97 182.91 197.86 182.61 197.89L182.12 196.44L184.06 195.95C184.18 196.1 183.65 197.83 183.57 197.89Z" fill="white"/>
<path d="M236 190.61L235.76 193.03C234.94 192.45 234.95 191.53 235.03 190.61H236Z" fill="white"/>
<path d="M202.456 185.581L201.415 185.782L201.884 188.207L202.925 188.006L202.456 185.581Z" fill="white"/>
<path d="M195.23 193.52V194.24C194.72 195 194.19 195.09 193.29 194.97L194.51 193.52H195.23Z" fill="white"/>
<path d="M167.07 207.6H163.68V208.08H167.07V207.6Z" fill="white"/>
<path d="M158.82 169.73V170.69L156.39 170.21V169.73H158.82Z" fill="white"/>
<path d="M235.52 186.24C235.26 187.21 234.49 187.33 233.58 187.2V186.23H235.52V186.24Z" fill="white"/>
<path d="M253.96 206.63H253.48C253.41 205.74 253.33 204.51 254.44 204.21L253.95 206.63H253.96Z" fill="white"/>
<path d="M274.36 180.41H271.45V180.89H274.36V180.41Z" fill="white"/>
<path d="M217.56 181.38C218.18 181.67 215.8 182.56 215.14 182.34C214.52 182.05 216.9 181.16 217.56 181.38Z" fill="white"/>
<path d="M229.673 205.661L227.608 206.904L228.052 207.641L230.116 206.397L229.673 205.661Z" fill="white"/>
<path d="M172.9 207.11C172.7 206.48 173.63 204.67 173.86 205.17C173.99 206.04 173.83 206.87 172.9 207.11Z" fill="white"/>
<path d="M266.58 186.72C266.51 186.79 266.26 186.7 266.11 186.72C265.98 185.85 266.14 185.02 267.07 184.78C267.12 185.16 266.69 186.61 266.58 186.72Z" fill="white"/>
<path d="M201.051 188.66H199.601V187.69L200.321 187.7L201.051 188.66Z" fill="white"/>
<path d="M286.49 195.46L287.94 194.01C288.1 194.9 287.41 195.62 286.49 195.46Z" fill="white"/>
<path d="M255.91 193.52H255.43V195.46H255.91V193.52Z" fill="white"/>
<path d="M192.8 189.64H190.86V190.12H192.8V189.64Z" fill="white"/>
<path d="M168.041 171.67H166.101V172.15H168.041V171.67Z" fill="white"/>
<path d="M169.99 202.36C170.321 202.36 170.59 202.091 170.59 201.76C170.59 201.428 170.321 201.16 169.99 201.16C169.658 201.16 169.39 201.428 169.39 201.76C169.39 202.091 169.658 202.36 169.99 202.36Z" fill="white"/>
<path d="M232.12 203.71C231.21 203.4 230.7 202.2 230.67 201.29C230.86 200.87 232.23 203.05 232.12 203.71Z" fill="white"/>
<path d="M164.17 195.56C164.502 195.56 164.77 195.291 164.77 194.96C164.77 194.628 164.502 194.36 164.17 194.36C163.839 194.36 163.57 194.628 163.57 194.96C163.57 195.291 163.839 195.56 164.17 195.56Z" fill="white"/>
<path d="M159.301 201.29H157.851V201.77H159.301V201.29Z" fill="white"/>
<path d="M233.58 206.62L232.61 206.63V205.66L233.58 206.62Z" fill="white"/>
<path d="M206.88 200.81L205.91 201.77V200.8L206.88 200.81Z" fill="white"/>
<path d="M248.14 200.32H247.66V201.77H248.14V200.32Z" fill="white"/>
<path d="M279.69 196.92H279.21V198.37H279.69V196.92Z" fill="white"/>
<path d="M247.66 196.92H247.18V198.37H247.66V196.92Z" fill="white"/>
<path d="M181.15 194.97H180.18L180.91 194.01L181.15 194.97Z" fill="white"/>
<path d="M201.05 190.12H200.57V191.57H201.05V190.12Z" fill="white"/>
<path d="M303.48 186.72L302.52 187.69L302.51 186.72H303.48Z" fill="white"/>
<path d="M190.37 186.23H189.4L189.41 185.26L190.37 186.23Z" fill="white"/>
<path d="M199.11 185.74C198.62 186.19 196.72 184.29 197.17 183.8C197.65 183.86 199.28 185.58 199.11 185.74Z" fill="white"/>
<path d="M146.2 180.89H145.23V179.92L146.2 180.89Z" fill="white"/>
<path d="M164.16 171.67C164.79 171.95 162.41 172.86 161.74 172.63V172.15L164.16 171.66V171.67Z" fill="white"/>
<path d="M191.83 208.58H190.86V209.06H191.83V208.58Z" fill="white"/>
<path d="M290.86 204.21H289.89V204.69H290.86V204.21Z" fill="white"/>
<path d="M281.64 196.43H281.16V197.4H281.64V196.43Z" fill="white"/>
<path d="M255.91 196.43H255.43V197.4H255.91V196.43Z" fill="white"/>
<path d="M187.95 191.1H186.98V191.58H187.95V191.1Z" fill="white"/>
<path d="M260.76 184.78H260.28V185.75H260.76V184.78Z" fill="white"/>
<path d="M227.27 181.87H226.3V182.35H227.27V181.87Z" fill="white"/>
<path d="M208.821 181.87H207.851V182.35H208.821V181.87Z" fill="white"/>
<path d="M180.66 174.58H180.18V175.55H180.66V174.58Z" fill="white"/>
<path d="M155.91 169.73H154.94V170.21H155.91V169.73Z" fill="white"/>
<path d="M247.66 192.06H247.18V193.03H247.66V192.06Z" fill="white"/>
<path d="M184.11 227.55L186.01 227.5L185.52 226.54C190.64 224.82 194.16 232.04 193.18 236.38C192.51 239.33 186.88 243.33 184.53 240.38C181.91 237.1 183.11 231.25 184.11 227.54V227.55Z" fill="white"/>
<path d="M266.59 228.97L264.84 236.66C263.25 236.31 260.01 237.42 258.81 237.04C257.71 236.69 257.63 235.67 257.23 235.43C256.22 234.82 254.35 234.63 253.15 233.2C251.11 230.77 254.75 229.3 256.77 229.06C258.9 228.81 261.12 230 262.97 229.95C264.34 229.92 265.22 228.82 266.59 228.97Z" fill="white"/>
<path d="M245.23 226.54C243.28 229.67 245.36 231.06 245.62 233.2C245.81 234.78 244.44 236.39 246.68 237.95L244.02 239.64C243.51 239.3 243.42 238.99 243.31 238.42C242.74 235.45 240.43 225.66 245.24 226.54H245.23Z" fill="white"/>
<path d="M219.99 227.51C220.68 227.58 220.83 229.67 220.9 230.24C221.15 232.45 221.69 236.95 221.46 238.95C221.2 241.22 219.74 241.28 219.47 238.95C219.08 235.49 219.98 231.07 219.98 227.52L219.99 227.51Z" fill="white"/>
<path d="M309.18 223.49C308.9 223.8 307.64 224.32 307.37 224.1C308.15 222.87 308.52 221.71 308.34 220.22C310.19 220.04 310.1 222.49 309.18 223.49Z" fill="white"/>
<path d="M263.19 221.2C264.09 221.13 266.88 223.7 264.88 224.11C263.81 224.33 263.02 222.07 263.19 221.2Z" fill="white"/>
<path d="M258.82 225.57L255.43 226.53C255.5 224.33 257.49 225.19 258.82 225.57Z" fill="white"/>
<path d="M293.21 233.42L293.05 236.25L291.84 232.85L293.21 233.42Z" fill="white"/>
<path d="M246.68 231.39C245.24 230.75 245.82 228.62 246.21 227.51C247.2 228.04 246.88 230.49 246.68 231.39Z" fill="white"/>
<path d="M229.7 243.53V241.59C230.62 241.4 231.01 242.21 231.63 242.8C231.12 243.55 230.59 243.64 229.7 243.53Z" fill="white"/>
<path d="M196.68 220.23L195.7 222.16H194.74V220.23H196.68Z" fill="white"/>
<path d="M284.07 238.68L284.56 235.77H285.03C285.06 236.83 285.3 238.3 284.07 238.68Z" fill="white"/>
<path d="M265.62 227.03C265.07 228.32 263.47 228.57 262.22 228.48C262.72 227.68 264.72 227.33 265.62 227.03Z" fill="white"/>
<path d="M274.84 241.1H273.39C273.39 239.32 274.83 239.32 274.84 241.1Z" fill="white"/>
<path d="M216.58 244.02L216.59 244.98L215.14 245.47L215.13 244.02H216.58Z" fill="white"/>
<path d="M242.31 243.04L240.86 242.81L242.31 241.59V243.04Z" fill="white"/>
<path d="M261.429 222.629L260.246 224.59L260.983 225.034L262.165 223.073L261.429 222.629Z" fill="white"/>
<path d="M193.29 244.5C192.56 243.77 194.73 242.43 194.73 243.77C194.73 244.09 193.56 244.77 193.29 244.5Z" fill="white"/>
<path d="M147.17 232.85L147.16 234.79H146.69L146.2 232.85H147.17Z" fill="white"/>
<path d="M151.05 231.39C150.17 231.5 150.72 230.44 150.57 229.78C150.47 229.33 148.5 229.52 150.33 227.99L151.05 231.38V231.39Z" fill="white"/>
<path d="M254.45 224.6L253 226.05C252.84 225.16 253.53 224.44 254.45 224.6Z" fill="white"/>
<path d="M204.45 232.85H203.97V235.27H204.45V232.85Z" fill="white"/>
<path d="M248.62 241.1H247.66V239.65L248.62 240.38V241.1Z" fill="white"/>
<path d="M255.91 222.65H254.45V221.68L255.17 221.69L255.91 222.65Z" fill="white"/>
<path d="M268.53 222.17C268.77 222.35 267.68 223.46 267.07 223.13C266.83 222.95 267.92 221.84 268.53 222.17Z" fill="white"/>
<path d="M271.94 230.04C272.272 230.04 272.54 229.771 272.54 229.44C272.54 229.108 272.272 228.84 271.94 228.84C271.609 228.84 271.34 229.108 271.34 229.44C271.34 229.771 271.609 230.04 271.94 230.04Z" fill="white"/>
<path d="M289.41 241.69C289.741 241.69 290.01 241.421 290.01 241.09C290.01 240.758 289.741 240.49 289.41 240.49C289.079 240.49 288.81 240.758 288.81 241.09C288.81 241.421 289.079 241.69 289.41 241.69Z" fill="white"/>
<path d="M187.47 245.47C187.15 244.86 188.25 243.78 188.43 244.01C188.75 244.62 187.65 245.7 187.47 245.47Z" fill="white"/>
<path d="M223.38 244.02V244.5H221.93V243.53L223.38 244.02Z" fill="white"/>
<path d="M219.02 242.66C219.351 242.66 219.62 242.391 219.62 242.06C219.62 241.729 219.351 241.46 219.02 241.46C218.689 241.46 218.42 241.729 218.42 242.06C218.42 242.391 218.689 242.66 219.02 242.66Z" fill="white"/>
<path d="M234.07 228.1C234.402 228.1 234.67 227.831 234.67 227.5C234.67 227.169 234.402 226.9 234.07 226.9C233.739 226.9 233.47 227.169 233.47 227.5C233.47 227.831 233.739 228.1 234.07 228.1Z" fill="white"/>
<path d="M241.83 238.19H241.35V239.64H241.83V238.19Z" fill="white"/>
<path d="M148.62 235.76L148.38 236.73L147.65 235.77L148.62 235.76Z" fill="white"/>
<path d="M239.89 219.74H239.41V221.19H239.89V219.74Z" fill="white"/>
<path d="M253.97 235.76H253V234.79L253.97 235.76Z" fill="white"/>
<path d="M258.33 239.16L257.37 238.92L258.33 238.19V239.16Z" fill="white"/>
<path d="M194.74 231.88H194.26V233.33H194.74V231.88Z" fill="white"/>
<path d="M211.73 242.56H211.25V244.01H211.73V242.56Z" fill="white"/>
<path d="M291.83 230.91H291.35V232.36H291.83V230.91Z" fill="white"/>
<path d="M289.89 225.08H289.41V226.05H289.89V225.08Z" fill="white"/>
<path d="M174.84 222.65H174.36V223.62H174.84V222.65Z" fill="white"/>
<path d="M173.38 222.66H172.41V223.14H173.38V222.66Z" fill="white"/>
<path d="M288.43 221.2H287.46V221.68H288.43V221.2Z" fill="white"/>
<path d="M271.44 234.31H270.96V235.28H271.44V234.31Z" fill="white"/>
<path d="M234.55 220.71H233.58V221.19H234.55V220.71Z" fill="white"/>
<path d="M163.68 214.4H162.71V214.88H163.68V214.4Z" fill="white"/>
<path d="M281.64 237.71H281.16V238.68H281.64V237.71Z" fill="white"/>
<path d="M222.9 240.13H222.42V241.1H222.9V240.13Z" fill="white"/>
<path d="M258.82 240.62H257.85V241.1H258.82V240.62Z" fill="white"/>
<path d="M160.281 241.11H159.311V241.59H160.281V241.11Z" fill="white"/>
<path d="M298.63 248.88H298.15V249.85H298.63V248.88Z" fill="white"/>
<path d="M211.73 139.62C215.52 141.53 219.2 138.33 222.66 136.71C223.23 136.53 221.65 141.34 221.47 141.83C219.71 146.54 216.02 154.07 212.48 157.6C205.67 164.39 207.4 154.22 208.69 149.92C209.67 146.67 212.19 142.97 211.74 139.62H211.73Z" fill="white"/>
<path d="M232.13 122.14C232.89 122.06 233.73 122.03 234.01 122.94C234.81 125.54 231.19 130.49 229.98 132.86C229.48 133.84 228.14 139.06 226.54 139.12C225.44 139.16 226.45 136.57 226.56 136.23C227.99 131.71 230.94 126.86 232.13 122.14Z" fill="white"/>
<path d="M180.31 147.51C180.39 147.33 182.3 145.61 182.41 144.45C185.42 143.77 186.03 150.44 185.42 152.4C184.91 154.07 181.04 155.68 180.25 153.38C180.01 152.68 180.03 148.16 180.31 147.51ZM183.34 148.86C181.81 148.8 180.13 152.84 181.89 153.22C183.48 153.56 184.99 148.93 183.34 148.86Z" fill="white"/>
<path d="M225.32 131.36C224.4 131.48 225.06 130.48 225.17 129.99C225.57 128.16 226.23 125.79 227.75 124.56L225.32 131.35V131.36Z" fill="white"/>
<path d="M187.47 151.27L187.94 147.39C188.25 148.63 189.16 150.54 187.47 151.27Z" fill="white"/>
<path d="M190.86 123.6L192.06 120.69C193.49 121.2 191.37 123.42 190.86 123.6Z" fill="white"/>
<path d="M241.34 113.4C239.76 113.69 240.56 111.24 239.4 110.49C240.87 110.38 241.41 112.21 241.34 113.4Z" fill="white"/>
<path d="M214.16 163.9C214.06 164.46 212.18 166.33 211.74 165.84L212.07 164.39L214.17 163.91L214.16 163.9Z" fill="white"/>
<path d="M208.34 162.93L208.38 161.52L210.28 160.99C210.47 161.92 209.64 162.34 209.06 162.93H208.34Z" fill="white"/>
<path d="M219.67 149.282L218.031 152.227L218.783 152.645L220.422 149.7L219.67 149.282Z" fill="white"/>
<path d="M232.6 159.53V160.5H230.18V159.53H232.6Z" fill="white"/>
<path d="M234.06 129.43V130.14L232.61 131.37L233.1 129.43H234.06Z" fill="white"/>
<path d="M224.249 148.72L223.197 152.017L223.864 152.229L224.916 148.933L224.249 148.72Z" fill="white"/>
<path d="M210.76 140.11L210.27 142.04L209.8 142.05L209.79 140.11H210.76Z" fill="white"/>
<path d="M223.38 135.25H221.93V134.28H222.65L223.38 135.25Z" fill="white"/>
<path d="M201.05 159.05H200.57V161.47H201.05V159.05Z" fill="white"/>
<path d="M221.099 145.873L219.699 148.695L220.344 149.015L221.744 146.193L221.099 145.873Z" fill="white"/>
<path d="M202.021 165.35H201.061V163.9H201.531L202.021 165.35Z" fill="white"/>
<path d="M208.81 146.41C208.15 147.24 208.69 144.39 208.82 143.99H209.3C209.42 144.25 208.98 146.2 208.81 146.41Z" fill="white"/>
<path d="M205.91 157.1H205.43V158.55H205.91V157.1Z" fill="white"/>
<path d="M221.44 161.47H220.96V162.92H221.44V161.47Z" fill="white"/>
<path d="M188.43 128.94H187.95V130.39H188.43V128.94Z" fill="white"/>
<path d="M209.79 167.78H208.82V166.81L209.79 167.78Z" fill="white"/>
<path d="M188.43 160.02H187.95V161.47H188.43V160.02Z" fill="white"/>
<path d="M190.86 127.48H190.38V128.45H190.86V127.48Z" fill="white"/>
<path d="M202.99 149.82H202.51V150.79H202.99V149.82Z" fill="white"/>
<path d="M203.48 148.36H203V149.33H203.48V148.36Z" fill="white"/>
<path d="M203.97 146.91H203.49V147.88H203.97V146.91Z" fill="white"/>
<path d="M221.93 144.48H221.45V145.45H221.93V144.48Z" fill="white"/>
<path d="M225.32 143.99C225.26 144.06 225 143.97 224.84 143.99C224.97 143.25 225.1 141.92 225.8 142.05C225.87 142.21 225.38 143.91 225.31 143.99H225.32Z" fill="white"/>
<path d="M197.17 138.17H196.69V139.14H197.17V138.17Z" fill="white"/>
<path d="M187.95 130.88H187.47V131.85H187.95V130.88Z" fill="white"/>
<path d="M285.52 158.07L289.64 150.31C292.12 153.18 288.98 158.05 285.52 158.07Z" fill="white"/>
<path d="M243.74 152.21L242.08 152.25L241.88 151.08L244.25 148.85L243.74 152.21Z" fill="white"/>
<path d="M296.176 146.764L295.559 150.948L296.687 151.115L297.304 146.93L296.176 146.764Z" fill="white"/>
<path d="M250.57 144.96C249.91 145.57 247.94 142.75 248.15 142.05L250.57 144.96Z" fill="white"/>
<path d="M258.82 163.9C258.88 164.79 256.62 164.43 256.23 164.3C255.28 164.01 255.36 163.2 255.43 162.44C256.2 162.28 255.9 163.34 256.38 163.66C257.08 164.12 258.05 163.85 258.82 163.9Z" fill="white"/>
<path d="M272.41 160.02L271.2 161.95L270.48 161.23C271.1 160.64 271.49 159.83 272.41 160.02Z" fill="white"/>
<path d="M239.775 149.637L239.084 151.998L239.871 152.228L240.562 149.867L239.775 149.637Z" fill="white"/>
<path d="M298.14 135.25C298.08 135.32 297.82 135.23 297.67 135.25C297.48 134.85 297.99 132.56 298.63 132.83C298.75 133.09 298.28 135.1 298.14 135.25Z" fill="white"/>
<path d="M292.31 152.73H291.84V150.79L292.79 151.51L292.31 152.73Z" fill="white"/>
<path d="M250.08 160.02V160.49H248.14L248.86 159.54L250.08 160.02Z" fill="white"/>
<path d="M303.97 167.79L303.96 168.26L302.52 168.75L302.51 167.79H303.97Z" fill="white"/>
<path d="M291.83 148.37L291.34 149.81H290.87L290.86 148.36L291.83 148.37Z" fill="white"/>
<path d="M278.73 161.47C278.41 160.86 279.51 159.78 279.69 160.01C280.01 160.62 278.91 161.7 278.73 161.47Z" fill="white"/>
<path d="M241.83 143.02C242.07 143.2 240.98 144.31 240.37 143.98C240.13 143.8 241.22 142.69 241.83 143.02Z" fill="white"/>
<path d="M296.69 174.58C296.37 173.97 297.47 172.89 297.65 173.12C297.97 173.73 296.87 174.81 296.69 174.58Z" fill="white"/>
<path d="M274.84 157.11C275.08 157.29 273.99 158.4 273.38 158.07C273.14 157.89 274.23 156.78 274.84 157.11Z" fill="white"/>
<path d="M286 146.42L285.04 146.18L286 145.45V146.42Z" fill="white"/>
<path d="M291.83 167.79H291.35V168.76H291.83V167.79Z" fill="white"/>
<path d="M249.59 148.36C249.53 148.43 249.27 148.34 249.11 148.36C249.24 147.62 249.37 146.29 250.07 146.42C250.14 146.58 249.65 148.28 249.58 148.36H249.59Z" fill="white"/>
<path d="M247.66 142.54H246.69V143.02H247.66V142.54Z" fill="white"/>
<path d="M267.07 136.22H266.59V137.19H267.07V136.22Z" fill="white"/>
<path d="M299.11 131.37H298.63V132.34H299.11V131.37Z" fill="white"/>
<path d="M168.52 132.34C168.33 134.15 169.24 133.97 170.5 134.58C171.48 137.87 166.92 148.48 162.22 147.88C163.31 145.32 161.98 144.52 159.75 143.72L161.98 135.75L168.52 132.34Z" fill="white"/>
<path d="M156.72 150.94C157.03 151.29 157.79 152.4 157.13 152.72C156.13 151.87 154.8 151.41 154.95 149.81C155.02 149.73 156.53 150.72 156.72 150.94Z" fill="white"/>
<path d="M169.98 144.96L169.05 144.28L170.95 141.08L169.98 144.96Z" fill="white"/>
<path d="M174.35 129.91H172.9V127.97L174.35 129.19V129.91Z" fill="white"/>
<path d="M151.05 146.41C150.99 146.48 150.73 146.39 150.58 146.41C150.39 146.01 150.9 143.72 151.54 143.99C151.66 144.25 151.19 146.26 151.05 146.41Z" fill="white"/>
<path d="M156.87 149.02C156.81 149.09 156.55 149 156.4 149.02C156.21 148.62 156.72 146.33 157.36 146.6C157.48 146.86 157.01 148.87 156.87 149.02Z" fill="white"/>
<path d="M153 140.59L153.49 138.17H153.97C154.04 139.08 154.11 140.3 153.01 140.59H153Z" fill="white"/>
<path d="M170.47 148.85V149.57L169.5 150.3V148.85H170.47Z" fill="white"/>
<path d="M151.54 161.47H151.06V162.92H151.54V161.47Z" fill="white"/>
<path d="M150.57 151.28H150.09V152.73H150.57V151.28Z" fill="white"/>
<path d="M152.51 150.31H152.03V151.28H152.51V150.31Z" fill="white"/>
<path d="M155.91 148.36H155.43V149.33H155.91V148.36Z" fill="white"/>
<path d="M156.88 133.31H156.4V134.28H156.88V133.31Z" fill="white"/>
<path d="M157.36 130.88H156.88V131.85H157.36V130.88Z" fill="white"/>
<path d="M277.75 168.76H276.78V169.24H277.75V168.76Z" fill="white"/>
<path d="M137.95 62.9196C138.06 63.0296 137.58 63.8796 137.75 64.3596C137.94 64.8996 138.84 65.5796 138.81 66.0596C138.79 66.4596 136.67 68.0396 136.96 69.2096L134.06 68.7196C133.46 67.5196 134.99 67.8596 135.05 67.5096C135.54 64.4596 131.84 66.1596 133.08 69.6996L131.64 69.1796L131.37 64.8196C132.61 63.8996 136.67 61.5996 137.95 62.9196Z" fill="white"/>
<path d="M314.16 65.33L314.93 68.26L310.77 70.19L310.29 66.31L310.77 67.77L313.17 67.26C313.55 66.88 312.47 64.82 314.16 65.34V65.33Z" fill="white"/>
<path d="M53.9602 489.22L52.9902 489.23L53.0002 488.26L53.9602 489.22Z" fill="black"/>
<path d="M183.34 148.86C184.99 148.93 183.48 153.56 181.89 153.22C180.13 152.84 181.81 148.8 183.34 148.86Z" fill="black"/>
</svg>
